<svg xmlns="http://www.w3.org/2000/svg" width="61" height="62" viewBox="0 0 61 62" fill="none">
  <g clip-path="url(#clip0_55_131)">
    <path fill-rule="evenodd" clip-rule="evenodd" d="M50.517 55.0582H10.4857C8.33242 55.0582 6.7403 52.9323 7.55465 50.9772C11.3245 41.937 20.1817 36.7582 30.4998 36.7582C40.821 36.7582 49.6782 41.937 53.448 50.9772C54.2624 52.9323 52.6703 55.0582 50.517 55.0582ZM18.0467 18.4582C18.0467 11.7299 23.6343 6.25816 30.4998 6.25816C37.3684 6.25816 42.953 11.7299 42.953 18.4582C42.953 25.1865 37.3684 30.6582 30.4998 30.6582C23.6343 30.6582 18.0467 25.1865 18.0467 18.4582ZM60.8656 53.9479C58.6025 43.703 51.5204 36.142 42.2027 32.7107C47.1406 28.8159 50.0198 22.5175 48.9615 15.6215C47.7354 7.62134 40.94 1.21953 32.7416 0.286233C21.42 -1.00392 11.8186 7.62761 11.8186 18.4582C11.8186 24.2227 14.5453 29.3588 18.8 32.7107C9.47616 36.142 2.40016 43.703 0.134007 53.9479C-0.689493 57.672 2.37576 61.1581 6.26451 61.1581H54.7351C58.6269 61.1581 61.6891 57.672 60.8656 53.9479Z" fill="black"/>
  </g>
  <defs>
    <clipPath id="clip0_55_131">
      <rect width="61" height="61" fill="white" transform="translate(0 0.158203)"/>
    </clipPath>
  </defs>
</svg>
