<svg xmlns="http://www.w3.org/2000/svg" width="46" height="46" viewBox="0 0 46 46" fill="none">
  <path d="M16.1595 22.6533L5.35953 12.0783C4.90953 11.6283 4.90953 10.9533 5.35953 10.5033L10.7595 5.10331C11.2095 4.65331 11.8845 4.65331 12.3345 5.10331L22.9095 15.6783" stroke="black" stroke-width="2.25" stroke-miterlimit="10"/>
  <path d="M29.8845 22.6533L40.6845 33.4533C41.1345 33.9033 41.1345 34.5783 40.6845 35.0283L35.2845 40.4283C34.8345 40.8783 34.1595 40.8783 33.7095 40.4283L23.1345 29.6283" stroke="black" stroke-width="2.25" stroke-miterlimit="10"/>
  <path d="M32.2636 38.9943L30.0362 36.7668L34.6502 32.153L36.8775 34.3805L32.2636 38.9943Z" fill="black"/>
  <path d="M27.6348 34.2678L25.4074 32.0404L27.7939 29.654L30.0213 31.8814L27.6348 34.2678Z" fill="black"/>
  <path d="M13.8564 20.3292L11.629 18.1017L16.243 13.4879L18.4703 15.7154L13.8564 20.3292Z" fill="black"/>
  <path d="M9.22595 15.9249L6.9986 13.6974L9.38513 11.311L11.6125 13.5384L9.22595 15.9249Z" fill="black"/>
  <path d="M32.1345 6.67832L33.4845 5.32832C34.3845 4.42832 35.7345 4.42832 36.6345 5.32832L40.4595 9.15332C41.3595 10.0533 41.3595 11.4033 40.4595 12.3033L39.1095 13.6533" stroke="black" stroke-width="2.25" stroke-miterlimit="10" stroke-linecap="round" stroke-linejoin="round"/>
  <path d="M30.3726 8.67334L37.2137 15.5147L15.735 36.9927L8.89382 30.1513L30.3726 8.67334Z" stroke="black" stroke-width="2.25" stroke-miterlimit="10" stroke-linecap="round" stroke-linejoin="round"/>
  <path d="M10.5785 32.8737L32.5338 10.9176L34.7612 13.145L12.8059 35.101L10.5785 32.8737Z" fill="black"/>
  <path d="M5.35944 40.4283L8.73444 30.0783L15.7094 37.0533L5.35944 40.4283Z" stroke="black" stroke-width="2.25" stroke-miterlimit="10" stroke-linecap="round" stroke-linejoin="round"/>
  <path d="M6.48444 37.0533L5.35944 40.4283L8.73444 39.3033L6.48444 37.0533Z" fill="black"/>
  <path d="M39.5594 13.2033L36.8594 15.6783L30.1094 8.92833L32.5844 6.22833" stroke="black" stroke-width="2.25" stroke-miterlimit="10" stroke-linecap="round" stroke-linejoin="round"/>
</svg>
