<svg xmlns="http://www.w3.org/2000/svg" width="85" height="84" viewBox="0 0 85 84" fill="none">
  <path d="M42.7521 0.911133C32.7483 0.911548 23.0712 4.47154 15.4521 10.9541C7.83298 17.4367 2.76917 26.4189 1.1667 36.2934C-0.435762 46.168 1.52769 56.2905 6.70573 64.8499C11.8838 73.4092 19.9385 79.8468 29.4287 83.0107C31.5352 83.3794 32.3251 82.1156 32.3251 81.0096C32.3251 80.009 32.2724 76.6913 32.2724 73.163C21.6874 75.1115 18.949 70.5827 18.1064 68.2129C17.1714 65.9081 15.6893 63.8657 13.7881 62.262C12.3136 61.4721 10.2071 59.5236 13.7354 59.4711C15.0826 59.6173 16.3748 60.086 17.5024 60.8377C18.6299 61.5894 19.5597 62.6018 20.2128 63.7892C20.789 64.8243 21.5638 65.7356 22.4928 66.4707C23.4218 67.2059 24.4868 67.7505 25.6266 68.0734C26.7664 68.3962 27.9588 68.491 29.1353 68.3523C30.3119 68.2136 31.4495 67.844 32.4829 67.2649C32.6653 65.1231 33.6198 63.1206 35.1688 61.6302C25.795 60.577 15.9999 56.9432 15.9999 40.8288C15.9407 36.6418 17.4857 32.5908 20.3182 29.5066C19.0302 25.8675 19.1809 21.8739 20.7395 18.3423C20.7395 18.3423 24.2677 17.2364 32.325 22.6606C39.2186 20.7646 46.4961 20.7646 53.3897 22.6606C61.4469 17.1837 64.9753 18.3423 64.9753 18.3423C66.5341 21.8739 66.6848 25.8676 65.3966 29.5066C68.2375 32.5855 69.7839 36.6401 69.7149 40.8288C69.7149 56.9959 59.867 60.577 50.4933 61.6302C51.4987 62.6493 52.2731 63.8728 52.7638 65.2176C53.2545 66.5624 53.45 67.9971 53.3371 69.4242C53.3371 75.0591 53.2844 79.5878 53.2844 81.0097C53.2844 82.1157 54.0743 83.4322 56.1808 83.0109C65.6542 79.8211 73.6858 73.3685 78.8418 64.8048C83.9978 56.241 85.9426 46.1237 84.329 36.2587C82.7155 26.3937 77.6486 17.4232 70.0328 10.9485C62.417 4.47381 52.7481 0.916335 42.7521 0.911133Z" fill="white"/>
</svg>
