<svg xmlns="http://www.w3.org/2000/svg" width="69" height="70" viewBox="0 0 69 70" fill="none">
  <path d="M52.5792 12.5254C51.7673 12.5254 50.9735 12.7662 50.2984 13.2173C49.6233 13.6684 49.0971 14.3096 48.7864 15.0597C48.4757 15.8099 48.3944 16.6353 48.5528 17.4317C48.7112 18.228 49.1022 18.9595 49.6763 19.5337C50.2505 20.1078 50.982 20.4988 51.7783 20.6572C52.5747 20.8156 53.4001 20.7343 54.1503 20.4236C54.9004 20.1129 55.5416 19.5867 55.9927 18.9116C56.4438 18.2364 56.6846 17.4427 56.6846 16.6308C56.6846 15.542 56.252 14.4978 55.4821 13.7279C54.7122 12.958 53.668 12.5254 52.5792 12.5254ZM68.3163 20.8045C68.2498 17.966 67.7182 15.1576 66.7426 12.4912C65.8727 10.2098 64.5188 8.14394 62.7741 6.43585C61.0801 4.68228 59.0094 3.33693 56.7188 2.50157C54.0594 1.49632 51.2479 0.952529 48.4055 0.893652C44.7791 0.688385 43.6159 0.688385 34.3105 0.688385C25.0051 0.688385 23.8419 0.688385 20.2155 0.893652C17.3731 0.952529 14.5616 1.49632 11.9022 2.50157C9.61579 3.34539 7.5469 4.68958 5.84683 6.43585C4.09326 8.12991 2.74791 10.2006 1.91255 12.4912C0.907298 15.1506 0.363509 17.9621 0.304632 20.8045C0.099365 24.4309 0.0993652 25.5941 0.0993652 34.8995C0.0993652 44.2049 0.099365 45.3681 0.304632 48.9945C0.363509 51.8369 0.907298 54.6484 1.91255 57.3078C2.74791 59.5984 4.09326 61.6691 5.84683 63.3631C7.5469 65.1094 9.61579 66.4536 11.9022 67.2974C14.5616 68.3027 17.3731 68.8465 20.2155 68.9053C23.8419 69.1106 25.0051 69.1106 34.3105 69.1106C43.6159 69.1106 44.7791 69.1106 48.4055 68.9053C51.2479 68.8465 54.0594 68.3027 56.7188 67.2974C59.0094 66.4621 61.0801 65.1167 62.7741 63.3631C64.5266 61.6614 65.8817 59.5937 66.7426 57.3078C67.7182 54.6414 68.2498 51.833 68.3163 48.9945C68.3163 45.3681 68.5216 44.2049 68.5216 34.8995C68.5216 25.5941 68.5216 24.4309 68.3163 20.8045ZM62.1583 48.5839C62.1334 50.7556 61.7401 52.9072 60.9951 54.9472C60.4489 56.4361 59.5716 57.7813 58.4293 58.8815C57.3197 60.0122 55.9772 60.8877 54.495 61.4473C52.455 62.1923 50.3034 62.5856 48.1318 62.6105C44.7107 62.7816 43.4449 62.8158 34.4473 62.8158C25.4498 62.8158 24.184 62.8158 20.7629 62.6105C18.508 62.6527 16.2627 62.3055 14.1259 61.5842C12.7088 60.996 11.4279 60.1226 10.3627 59.0183C9.22719 57.9193 8.36081 56.5729 7.83108 55.0841C6.99583 53.0148 6.53257 50.8143 6.46263 48.5839C6.46263 45.1628 6.25737 43.897 6.25737 34.8995C6.25737 25.902 6.25737 24.6362 6.46263 21.2151C6.47797 18.9949 6.88326 16.7948 7.66002 14.7149C8.2623 13.2709 9.18674 11.9837 10.3627 10.9517C11.4021 9.77543 12.6866 8.84122 14.1259 8.21483C16.2113 7.46233 18.4091 7.06903 20.626 7.05165C24.0471 7.05165 25.313 6.84639 34.3105 6.84639C43.308 6.84639 44.5738 6.84639 47.9949 7.05165C50.1665 7.07656 52.3182 7.46987 54.3582 8.21483C55.9129 8.79181 57.3082 9.72986 58.4293 10.9517C59.5504 12.0026 60.4264 13.2874 60.9951 14.7149C61.7555 16.7982 62.1491 18.9974 62.1583 21.2151C62.3294 24.6362 62.3636 25.902 62.3636 34.8995C62.3636 43.897 62.3294 45.1628 62.1583 48.5839ZM34.3105 17.3492C30.8408 17.356 27.451 18.391 24.5694 20.3236C21.6878 22.2561 19.4436 24.9995 18.1205 28.207C16.7974 31.4145 16.4548 34.9422 17.1358 38.3443C17.8168 41.7465 19.491 44.8705 21.9468 47.3215C24.4027 49.7725 27.5299 51.4406 30.9334 52.115C34.3368 52.7895 37.8639 52.4399 41.0688 51.1106C44.2737 49.7812 47.0126 47.5317 48.9396 44.6464C50.8665 41.761 51.895 38.3692 51.895 34.8995C51.8995 32.5906 51.4475 30.3036 50.565 28.17C49.6825 26.0364 48.3868 24.0984 46.7526 22.4674C45.1184 20.8363 43.1778 19.5445 41.0425 18.6661C38.9072 17.7877 36.6194 17.3402 34.3105 17.3492ZM34.3105 46.2918C32.0573 46.2918 29.8547 45.6237 27.9813 44.3719C26.1078 43.1201 24.6476 41.3408 23.7854 39.2591C22.9231 37.1775 22.6975 34.8869 23.1371 32.677C23.5767 30.4671 24.6617 28.4372 26.2549 26.8439C27.8481 25.2507 29.8781 24.1657 32.088 23.7261C34.2978 23.2865 36.5885 23.5121 38.6701 24.3744C40.7518 25.2366 42.531 26.6968 43.7828 28.5703C45.0346 30.4437 45.7028 32.6463 45.7028 34.8995C45.7028 36.3956 45.4081 37.877 44.8356 39.2591C44.2631 40.6413 43.4239 41.8972 42.3661 42.9551C41.3082 44.0129 40.0523 44.8521 38.6701 45.4246C37.2879 45.9971 35.8065 46.2918 34.3105 46.2918Z" fill="white"/>
</svg>
