<svg xmlns="http://www.w3.org/2000/svg" width="89" height="90" viewBox="0 0 89 90" fill="none">
<path d="M44.3105 0.343475C19.84 0.343475 0 20.2656 0 44.8435C0 69.4186 19.84 89.3435 44.3105 89.3435C68.781 89.3435 88.621 69.4186 88.621 44.8435C88.621 20.2656 68.781 0.343475 44.3105 0.343475ZM32.8008 62.3014H23.7615V34.9895H32.8008V62.3014ZM28.2812 31.2599H28.223C25.1877 31.2599 23.227 29.16 23.227 26.5401C23.227 23.8617 25.2487 21.8231 28.3393 21.8231C31.43 21.8231 33.3353 23.8617 33.3935 26.5401C33.3935 29.1628 31.43 31.2599 28.2812 31.2599ZM65.394 62.3014H56.3546V47.6887C56.3546 44.0174 55.0475 41.5143 51.774 41.5143C49.2788 41.5143 47.7916 43.2025 47.1381 44.8351C46.8999 45.4192 46.839 46.2341 46.839 47.049V62.3014H37.8024C37.8024 62.3014 37.9215 37.5538 37.8024 34.9895H46.8417V38.8582C48.0409 36.9976 50.1899 34.347 54.9893 34.347C60.9352 34.347 65.394 38.2519 65.394 46.6402V62.3014Z" fill="#FFFCFC"/>
</svg>
