<svg xmlns="http://www.w3.org/2000/svg" width="36" height="36" viewBox="0 0 36 36" fill="none">
  <path d="M16.9696 0.882412C14.1783 1.10086 11.9999 1.70159 9.73649 2.87878C7.56414 4.00744 5.41 5.80964 4.01435 7.67251C3.0192 9.00141 2.00584 10.7733 1.47793 12.1325C0.422092 14.8085 0.100487 18.3522 0.628404 21.3862C0.871124 22.7819 1.46579 24.5477 2.10293 25.7673C2.52162 26.5622 3.42576 27.9397 4.09931 28.8013C4.69397 29.5659 6.08961 30.9555 6.75709 31.447C7.58234 32.0538 8.41366 32.6242 8.86876 32.9033C9.91853 33.5283 11.4052 34.1837 12.6734 34.572C13.6079 34.8633 14.0508 34.9604 15.2098 35.1242C18.0254 35.5308 19.8033 35.4458 22.4793 34.7601C24.1966 34.3232 25.9745 33.5222 27.7706 32.3693C28.9539 31.6108 30.4648 30.2334 31.466 29.0016C32.3823 27.879 32.4976 27.7091 33.3653 26.0889C34.6578 23.6981 35.1979 21.7564 35.3556 18.9287C35.4224 17.7697 35.21 15.6641 34.9066 14.4019C34.1906 11.4772 32.7403 8.74655 30.6833 6.45891C29.8641 5.54871 28.1772 4.18341 27.006 3.47952C25.7985 2.75136 23.9235 1.91397 22.7038 1.55596C20.938 1.03411 18.5897 0.761051 16.9696 0.882412ZM18.8446 2.54504C21.3264 2.72709 23.3288 3.33995 25.6407 4.6203C28.0376 5.9492 30.1796 8.073 31.5874 10.5184C32.5522 12.1871 33.0194 13.425 33.4078 15.3182C33.8144 17.3085 33.7901 19.3231 33.3289 21.3984C33.1226 22.3207 32.6675 23.6981 32.3034 24.5052C31.8726 25.47 30.9867 26.9384 30.3374 27.7758C28.2318 30.4882 25.1492 32.4179 21.4963 33.3038C20.2888 33.6011 19.8458 33.6436 18.0315 33.6436C16.3446 33.6436 15.9987 33.6133 14.7547 33.3705C12.3761 32.8972 10.0338 31.8232 7.95249 30.2455C6.20491 28.9227 4.39057 26.629 3.35901 24.4627C2.83716 23.3523 2.30924 21.544 2.1272 20.203C2.00584 19.3352 2.02405 17.0658 2.15147 16.1677C2.49735 13.8498 3.35294 11.5621 4.59081 9.67496C6.63573 6.54993 10.137 3.96496 13.5108 3.0851C15.4829 2.57539 17.0606 2.41762 18.8446 2.54504Z" fill="black"/>
  <path d="M16.9394 3.73436C16.1627 3.78897 15.5438 3.89213 14.6518 4.09844C13.3229 4.40791 12.7464 4.60815 11.5995 5.16034L10.5983 5.64578L10.7804 5.79141C10.8775 5.8703 11.2173 6.07054 11.5328 6.22831C12.4915 6.70768 16.6239 8.96498 17.2731 9.3594C17.6069 9.56571 18.2926 9.97834 18.7901 10.2817C19.2938 10.5851 19.9067 10.9614 20.1615 11.1191C20.7987 11.5075 22.2428 12.2114 22.2671 12.1446C22.2732 12.1143 22.0911 11.4225 21.8545 10.6094C21.6178 9.7963 21.3569 8.88003 21.272 8.5827C21.187 8.2793 21.0414 7.77565 20.9443 7.46012C20.8533 7.14458 20.5741 6.17976 20.3314 5.31811L19.8945 3.75863H19.5244C19.3181 3.75863 18.7295 3.74649 18.2137 3.73436C17.6979 3.72222 17.1214 3.72222 16.9394 3.73436Z" fill="black"/>
  <path d="M21.3684 4.2623C21.3684 4.31084 21.4534 4.62031 21.5504 4.94798C21.9388 6.21013 23.4315 11.4711 23.6743 12.4359C23.7471 12.7211 23.923 13.3461 24.0687 13.8315C24.2143 14.317 24.3721 14.8752 24.4267 15.0755C24.5298 15.476 24.9607 16.6228 25.0092 16.6228C25.0274 16.6228 25.0942 16.4954 25.1548 16.3376C25.2216 16.1799 25.5735 15.5609 25.9376 14.9602C26.3017 14.3595 26.6718 13.7163 26.7689 13.5281C26.9206 13.2369 27.5517 12.1568 28.6015 10.4153C28.7774 10.124 29.0202 9.74778 29.1476 9.58394L29.366 9.29268L28.6622 8.59486C28.2738 8.21257 27.752 7.715 27.5032 7.49048C26.9146 6.96256 25.5614 6.00382 24.8636 5.62153C24.5602 5.4577 24.2022 5.26352 24.0687 5.1907C23.6439 4.95405 22.8126 4.62031 22.1876 4.43827C21.8538 4.33511 21.5322 4.23803 21.4776 4.21375C21.4048 4.18341 21.3684 4.20162 21.3684 4.2623Z" fill="black"/>
  <path d="M9.01408 6.68345C8.94733 6.76234 8.51043 7.16889 8.03713 7.59365C6.52013 8.97109 5.68274 10.0633 4.83322 11.7684C4.49341 12.442 3.99583 13.7102 4.04438 13.7588C4.06258 13.783 4.42666 13.7102 4.85142 13.601C5.6706 13.4007 6.82353 13.1337 7.7762 12.9214C8.09174 12.8546 8.57111 12.7333 8.83811 12.6483C9.542 12.442 10.9194 12.1265 13.2374 11.641C14.3539 11.4104 15.4765 11.1677 15.7253 11.101C15.9741 11.0342 16.4049 10.9371 16.684 10.8825C16.9632 10.8279 17.1695 10.7612 17.1391 10.7369C17.1149 10.7126 16.4353 10.3425 15.6343 9.9177C14.8333 9.49294 14.0991 9.09852 13.9959 9.03784C13.826 8.93468 12.9037 8.45531 11.3563 7.66647C10.974 7.46623 10.4825 7.22957 10.2641 7.13248C10.0456 7.02933 9.7119 6.85942 9.52379 6.7502C9.33568 6.64098 9.17185 6.54996 9.15971 6.54996C9.14151 6.54996 9.08083 6.61064 9.01408 6.68345Z" fill="black"/>
  <path d="M29.8824 10.8704C29.6579 11.192 28.8327 12.5998 28.1652 13.8012C27.886 14.2988 27.261 15.3789 26.7695 16.1981C26.278 17.0173 25.744 17.9275 25.5863 18.2309C25.4224 18.5282 25.1372 19.0501 24.9491 19.3838C24.5608 20.0634 24.0996 20.9676 24.0996 21.0464C24.0996 21.0768 24.2816 21.0646 24.5122 21.0222C25.0705 20.9129 26.9152 20.5003 26.9576 20.476C27.0305 20.4275 30.3436 19.5962 31.0475 19.4506C32.4189 19.1532 32.4431 19.1472 32.4613 18.9894C32.4977 18.7467 32.3582 16.7017 32.255 16.0161C32.1215 15.0937 31.7392 13.6495 31.4419 12.9517C30.9261 11.7381 30.3133 10.6155 30.1676 10.6155C30.113 10.6155 29.9856 10.7308 29.8824 10.8704Z" fill="black"/>
  <path d="M17.1213 12.2782C16.023 12.4724 14.949 12.9214 14.2936 13.4615C13.2135 14.3413 12.3883 15.8887 12.2669 17.26C12.1213 18.8863 12.5278 20.3001 13.4926 21.5319C13.8385 21.9749 14.5667 22.5999 15.1067 22.9215C16.2839 23.6254 18.0194 23.8499 19.2148 23.4494C19.8519 23.2431 20.6286 22.8547 21.0594 22.5392C21.8058 21.9931 22.6493 20.9615 23.0194 20.1545C23.3835 19.3596 23.5413 18.2855 23.432 17.3753C23.2561 15.8947 22.6189 14.5658 21.6602 13.6799C20.5012 12.6059 18.5958 12.0173 17.1213 12.2782ZM18.7961 13.8013C19.5303 14.0197 19.9915 14.7964 19.7973 15.5003C19.6092 16.2042 19.057 16.629 18.3228 16.6411C17.455 16.6532 16.8604 16.095 16.8543 15.2576C16.8422 14.5537 17.188 14.0379 17.8009 13.8255C18.1953 13.692 18.4077 13.686 18.7961 13.8013Z" fill="black"/>
  <path d="M11.963 13.1398C11.3562 13.34 9.3841 13.8679 7.24817 14.4141C6.00422 14.7235 4.79062 15.0391 4.5479 15.0997C4.30518 15.1665 3.97751 15.2332 3.81974 15.2575C3.486 15.3061 3.51634 15.2211 3.37071 16.5318C3.29789 17.2114 3.27969 17.7393 3.30396 18.6253C3.34037 19.9177 3.42532 20.5245 3.74086 21.7746C4.02605 22.9032 4.63285 24.5052 4.77242 24.5112C4.8331 24.5112 5.28213 23.8073 5.85252 22.8243C5.97995 22.6059 6.16199 22.3267 6.26515 22.1933C6.3683 22.0658 6.58068 21.7442 6.73238 21.4833C6.89015 21.2224 7.18142 20.7612 7.37559 20.4699C7.86103 19.7418 8.32827 19.0136 8.83798 18.2066C9.41444 17.2903 10.179 16.101 10.628 15.4396C10.8283 15.1362 11.1074 14.6993 11.247 14.4687C11.3805 14.232 11.6475 13.8497 11.8295 13.6192C12.2725 13.0548 12.2846 13.0427 12.2603 13.0488C12.2482 13.0488 12.1147 13.0912 11.963 13.1398Z" fill="black"/>
  <path d="M9.99152 18.7587C9.62744 19.3352 9.13593 20.124 8.89927 20.5063C8.66262 20.8886 8.12257 21.7503 7.70994 22.4178C7.29125 23.0852 6.72086 24.0136 6.44173 24.4809C6.1626 24.9481 5.86527 25.4214 5.78032 25.5306C5.63468 25.7309 5.63468 25.737 5.73784 25.9372C5.79852 26.0464 6.06551 26.4287 6.32644 26.7746C7.08494 27.7819 8.48058 29.0562 9.83375 29.9664C10.7318 30.5732 13.3593 31.7079 14.4151 31.9445C14.5729 31.9749 14.585 31.9688 14.5607 31.8414C14.494 31.538 13.3532 27.8001 12.7525 25.9372C12.5522 25.3001 12.3034 24.4566 12.2003 24.0561C12.0971 23.6556 11.8787 22.8789 11.7088 22.3267C11.3993 21.3073 10.8653 19.0318 10.7439 18.1823C10.7075 17.9274 10.6711 17.715 10.659 17.715C10.6529 17.715 10.3495 18.1883 9.99152 18.7587Z" fill="black"/>
  <path d="M31.1688 20.834C29.2149 21.3558 26.1627 22.1325 24.9795 22.4117C23.4443 22.7757 23.1105 22.891 22.0668 23.4008C21.5753 23.6374 20.7865 23.959 20.1979 24.1471C19.6396 24.3292 19.1845 24.493 19.1845 24.5112C19.1906 24.5294 19.3301 24.6447 19.5061 24.7661C19.8277 25.0027 20.1493 25.1665 22.3095 26.192C22.977 26.5076 23.7537 26.8777 24.0389 27.0173C24.6821 27.3268 26.0414 28.0488 26.4115 28.2794C26.5632 28.3765 26.8484 28.51 27.0487 28.5768C27.2428 28.6435 27.4734 28.7345 27.5462 28.7709C27.6797 28.8377 27.7101 28.8256 27.9406 28.5707C29.4516 26.9384 30.829 24.8631 31.4662 23.2673C31.8242 22.3631 32.3096 20.5609 32.1943 20.5731C32.164 20.5731 31.7028 20.6944 31.1688 20.834Z" fill="black"/>
  <path d="M13.4196 23.322C13.4196 23.4737 13.6016 24.1654 13.8443 24.9361C14.0082 25.4518 14.3237 26.447 14.5421 27.1509C15.1793 29.1715 15.6283 30.7371 15.78 31.4592C15.8589 31.8232 15.9317 32.157 15.9378 32.1995C15.9742 32.3208 16.6113 32.3694 17.9706 32.3633C20.2946 32.3512 21.666 32.0781 23.6806 31.2286C24.0386 31.0769 24.5544 30.8281 24.8335 30.6703C25.3553 30.373 26.4172 29.663 26.3869 29.6327C26.3808 29.6206 25.9743 29.4628 25.4949 29.2747C25.0095 29.0866 24.2631 28.7468 23.8262 28.5162C22.9039 28.0368 20.6526 26.9082 19.3055 26.2528C18.7897 26.004 17.9038 25.5732 17.3334 25.3001C16.7691 25.0271 15.9196 24.6144 15.4523 24.3899C14.9851 24.1654 14.4208 23.8742 14.2023 23.7407C13.729 23.4433 13.4196 23.2856 13.4196 23.322Z" fill="black"/>
</svg>
