<svg xmlns="http://www.w3.org/2000/svg" width="36" height="36" viewBox="0 0 36 36" fill="none">
  <path d="M16.9697 0.882412C14.1784 1.10086 12 1.70159 9.73661 2.87878C7.56426 4.00744 5.41012 5.80964 4.01448 7.67251C3.01932 9.00141 2.00596 10.7733 1.47805 12.1325C0.422214 14.8085 0.100609 18.3522 0.628526 21.3862C0.871246 22.7819 1.46591 24.5477 2.10305 25.7673C2.52175 26.5622 3.42588 27.9397 4.09943 28.8013C4.69409 29.5659 6.08974 30.9555 6.75722 31.447C7.58247 32.0538 8.41378 32.6242 8.86888 32.9033C9.91865 33.5283 11.4053 34.1837 12.6735 34.572C13.608 34.8633 14.051 34.9604 15.21 35.1242C18.0255 35.5308 19.8034 35.4458 22.4794 34.7601C24.1967 34.3232 25.9746 33.5222 27.7707 32.3693C28.954 31.6108 30.4649 30.2334 31.4662 29.0016C32.3824 27.879 32.4977 27.7091 33.3654 26.0889C34.6579 23.6981 35.198 21.7564 35.3558 18.9287C35.4225 17.7697 35.2101 15.6641 34.9067 14.4019C34.1907 11.4772 32.7404 8.74655 30.6834 6.45891C29.8642 5.54871 28.1773 4.18341 27.0062 3.47952C25.7986 2.75136 23.9236 1.91397 22.7039 1.55596C20.9382 1.03411 18.5898 0.761051 16.9697 0.882412ZM18.8447 2.54504C21.3265 2.72709 23.329 3.33995 25.6409 4.6203C28.0377 5.9492 30.1797 8.073 31.5875 10.5184C32.5523 12.1871 33.0196 13.425 33.4079 15.3182C33.8145 17.3085 33.7902 19.3231 33.329 21.3984C33.1227 22.3207 32.6676 23.6981 32.3035 24.5052C31.8727 25.47 30.9868 26.9384 30.3375 27.7758C28.2319 30.4882 25.1494 32.4179 21.4964 33.3038C20.2889 33.6011 19.8459 33.6436 18.0316 33.6436C16.3447 33.6436 15.9988 33.6133 14.7549 33.3705C12.3762 32.8972 10.0339 31.8232 7.95261 30.2455C6.20503 28.9227 4.39069 26.629 3.35913 24.4627C2.83728 23.3523 2.30936 21.544 2.12732 20.203C2.00596 19.3352 2.02417 17.0658 2.1516 16.1677C2.49747 13.8498 3.35306 11.5621 4.59094 9.67496C6.63586 6.54993 10.1371 3.96496 13.5109 3.0851C15.483 2.57539 17.0607 2.41762 18.8447 2.54504Z" fill="white"/>
  <path d="M16.9397 3.73436C16.163 3.78897 15.5441 3.89213 14.6521 4.09844C13.3232 4.40791 12.7467 4.60815 11.5999 5.16034L10.5986 5.64578L10.7807 5.79141C10.8778 5.8703 11.2176 6.07054 11.5331 6.22831C12.4919 6.70768 16.6242 8.96498 17.2734 9.3594C17.6072 9.56571 18.2929 9.97834 18.7904 10.2817C19.2941 10.5851 19.907 10.9614 20.1618 11.1191C20.799 11.5075 22.2431 12.2114 22.2674 12.1446C22.2735 12.1143 22.0914 11.4225 21.8548 10.6094C21.6181 9.7963 21.3572 8.88003 21.2723 8.5827C21.1873 8.2793 21.0417 7.77565 20.9446 7.46012C20.8536 7.14458 20.5744 6.17976 20.3317 5.31811L19.8948 3.75863H19.5247C19.3184 3.75863 18.7298 3.74649 18.214 3.73436C17.6982 3.72222 17.1217 3.72222 16.9397 3.73436Z" fill="white"/>
  <path d="M21.3682 4.2623C21.3682 4.31084 21.4531 4.62031 21.5502 4.94798C21.9386 6.21013 23.4313 11.4711 23.674 12.4359C23.7468 12.7211 23.9228 13.3461 24.0684 13.8315C24.2141 14.317 24.3718 14.8752 24.4264 15.0755C24.5296 15.476 24.9604 16.6228 25.009 16.6228C25.0272 16.6228 25.0939 16.4954 25.1546 16.3376C25.2214 16.1799 25.5733 15.5609 25.9374 14.9602C26.3015 14.3595 26.6716 13.7163 26.7687 13.5281C26.9204 13.2369 27.5515 12.1568 28.6012 10.4153C28.7772 10.124 29.0199 9.74778 29.1474 9.58394L29.3658 9.29268L28.6619 8.59486C28.2736 8.21257 27.7517 7.715 27.5029 7.49048C26.9143 6.96256 25.5612 6.00382 24.8633 5.62153C24.5599 5.4577 24.2019 5.26352 24.0684 5.1907C23.6437 4.95405 22.8124 4.62031 22.1873 4.43827C21.8536 4.33511 21.532 4.23803 21.4774 4.21375C21.4046 4.18341 21.3682 4.20162 21.3682 4.2623Z" fill="white"/>
  <path d="M9.01402 6.68345C8.94727 6.76234 8.51037 7.16889 8.03707 7.59365C6.52006 8.97109 5.68268 10.0633 4.83316 11.7684C4.49335 12.442 3.99577 13.7102 4.04432 13.7588C4.06252 13.783 4.4266 13.7102 4.85136 13.601C5.67054 13.4007 6.82347 13.1337 7.77614 12.9214C8.09168 12.8546 8.57105 12.7333 8.83804 12.6483C9.54193 12.442 10.9194 12.1265 13.2374 11.641C14.3539 11.4104 15.4764 11.1677 15.7252 11.101C15.974 11.0342 16.4049 10.9371 16.684 10.8825C16.9631 10.8279 17.1694 10.7612 17.1391 10.7369C17.1148 10.7126 16.4352 10.3425 15.6342 9.9177C14.8332 9.49294 14.099 9.09852 13.9959 9.03784C13.8259 8.93468 12.9036 8.45531 11.3563 7.66647C10.974 7.46623 10.4825 7.22957 10.264 7.13248C10.0456 7.02933 9.71184 6.85942 9.52373 6.7502C9.33562 6.64098 9.17179 6.54996 9.15965 6.54996C9.14145 6.54996 9.08077 6.61064 9.01402 6.68345Z" fill="white"/>
  <path d="M29.8824 10.8704C29.6579 11.192 28.8327 12.5998 28.1652 13.8012C27.886 14.2988 27.261 15.3789 26.7695 16.1981C26.278 17.0173 25.744 17.9275 25.5863 18.2309C25.4224 18.5282 25.1372 19.0501 24.9491 19.3838C24.5608 20.0634 24.0996 20.9676 24.0996 21.0464C24.0996 21.0768 24.2816 21.0646 24.5122 21.0222C25.0705 20.9129 26.9152 20.5003 26.9576 20.476C27.0305 20.4275 30.3436 19.5962 31.0475 19.4506C32.4189 19.1532 32.4431 19.1472 32.4613 18.9894C32.4977 18.7467 32.3582 16.7017 32.255 16.0161C32.1215 15.0937 31.7392 13.6495 31.4419 12.9517C30.9261 11.7381 30.3133 10.6155 30.1676 10.6155C30.113 10.6155 29.9856 10.7308 29.8824 10.8704Z" fill="white"/>
  <path d="M17.1215 12.2782C16.0232 12.4724 14.9491 12.9214 14.2938 13.4615C13.2137 14.3413 12.3884 15.8887 12.2671 17.26C12.1214 18.8863 12.528 20.3001 13.4928 21.5319C13.8387 21.9749 14.5668 22.5999 15.1069 22.9215C16.2841 23.6254 18.0195 23.8499 19.2149 23.4494C19.8521 23.2431 20.6288 22.8547 21.0596 22.5392C21.806 21.9931 22.6494 20.9615 23.0196 20.1545C23.3837 19.3596 23.5414 18.2855 23.4322 17.3753C23.2562 15.8947 22.6191 14.5658 21.6604 13.6799C20.5014 12.6059 18.596 12.0173 17.1215 12.2782ZM18.7963 13.8013C19.5305 14.0197 19.9917 14.7964 19.7975 15.5003C19.6094 16.2042 19.0572 16.629 18.3229 16.6411C17.4552 16.6532 16.8606 16.095 16.8545 15.2576C16.8424 14.5537 17.1882 14.0379 17.8011 13.8255C18.1955 13.692 18.4079 13.686 18.7963 13.8013Z" fill="white"/>
  <path d="M11.9631 13.1398C11.3563 13.34 9.38423 13.8679 7.24829 14.4141C6.00435 14.7235 4.79074 15.0391 4.54802 15.0997C4.3053 15.1665 3.97763 15.2332 3.81986 15.2575C3.48612 15.3061 3.51646 15.2211 3.37083 16.5318C3.29801 17.2114 3.27981 17.7393 3.30408 18.6253C3.34049 19.9177 3.42544 20.5245 3.74098 21.7746C4.02617 22.9032 4.63297 24.5052 4.77254 24.5112C4.83322 24.5112 5.28225 23.8073 5.85264 22.8243C5.98007 22.6059 6.16211 22.3267 6.26527 22.1933C6.36843 22.0658 6.58081 21.7442 6.73251 21.4833C6.89027 21.2224 7.18154 20.7612 7.37572 20.4699C7.86116 19.7418 8.32839 19.0136 8.83811 18.2066C9.41457 17.2903 10.1791 16.101 10.6282 15.4396C10.8284 15.1362 11.1075 14.6993 11.2471 14.4687C11.3806 14.232 11.6476 13.8497 11.8296 13.6192C12.2726 13.0548 12.2847 13.0427 12.2605 13.0488C12.2483 13.0488 12.1148 13.0912 11.9631 13.1398Z" fill="white"/>
  <path d="M9.99146 18.7587C9.62737 19.3352 9.13587 20.124 8.89921 20.5063C8.66256 20.8886 8.12251 21.7503 7.70988 22.4178C7.29119 23.0852 6.7208 24.0136 6.44167 24.4809C6.16254 24.9481 5.86521 25.4214 5.78026 25.5306C5.63462 25.7309 5.63462 25.737 5.73778 25.9372C5.79846 26.0464 6.06545 26.4287 6.32638 26.7746C7.08488 27.7819 8.48052 29.0562 9.83369 29.9664C10.7318 30.5732 13.3592 31.7079 14.415 31.9445C14.5728 31.9749 14.5849 31.9688 14.5607 31.8414C14.4939 31.538 13.3531 27.8001 12.7524 25.9372C12.5522 25.3001 12.3034 24.4566 12.2002 24.0561C12.0971 23.6556 11.8786 22.8789 11.7087 22.3267C11.3992 21.3073 10.8652 19.0318 10.7439 18.1823C10.7075 17.9274 10.6711 17.715 10.6589 17.715C10.6529 17.715 10.3495 18.1883 9.99146 18.7587Z" fill="white"/>
  <path d="M31.1689 20.834C29.215 21.3558 26.1628 22.1325 24.9795 22.4117C23.4443 22.7757 23.1106 22.891 22.0669 23.4008C21.5754 23.6374 20.7865 23.959 20.1979 24.1471C19.6397 24.3292 19.1846 24.493 19.1846 24.5112C19.1906 24.5294 19.3302 24.6447 19.5062 24.7661C19.8278 25.0027 20.1494 25.1665 22.3096 26.192C22.9771 26.5076 23.7538 26.8777 24.039 27.0173C24.6822 27.3268 26.0414 28.0488 26.4116 28.2794C26.5633 28.3765 26.8485 28.51 27.0487 28.5768C27.2429 28.6435 27.4735 28.7345 27.5463 28.7709C27.6798 28.8377 27.7101 28.8256 27.9407 28.5707C29.4516 26.9384 30.8291 24.8631 31.4662 23.2673C31.8242 22.3631 32.3097 20.5609 32.1944 20.5731C32.164 20.5731 31.7029 20.6944 31.1689 20.834Z" fill="white"/>
  <path d="M13.4199 23.322C13.4199 23.4737 13.602 24.1654 13.8447 24.9361C14.0085 25.4518 14.3241 26.447 14.5425 27.1509C15.1796 29.1715 15.6287 30.7371 15.7804 31.4592C15.8593 31.8232 15.9321 32.157 15.9381 32.1995C15.9746 32.3208 16.6117 32.3694 17.9709 32.3633C20.295 32.3512 21.6663 32.0781 23.6809 31.2286C24.0389 31.0769 24.5547 30.8281 24.8338 30.6703C25.3557 30.373 26.4176 29.663 26.3873 29.6327C26.3812 29.6206 25.9746 29.4628 25.4953 29.2747C25.0098 29.0866 24.2635 28.7468 23.8266 28.5162C22.9042 28.0368 20.653 26.9082 19.3059 26.2528C18.7901 26.004 17.9042 25.5732 17.3338 25.3001C16.7695 25.0271 15.9199 24.6144 15.4527 24.3899C14.9855 24.1654 14.4211 23.8742 14.2027 23.7407C13.7294 23.4433 13.4199 23.2856 13.4199 23.322Z" fill="white"/>
</svg>
