<svg xmlns="http://www.w3.org/2000/svg" width="70" height="73" viewBox="0 0 70 73" fill="none">
  <g clip-path="url(#clip0_153_281)">
    <g filter="url(#filter0_d_153_281)">
      <g filter="url(#filter1_d_153_281)">
        <rect width="26.2566" height="7.1609" transform="matrix(0.701967 0.71221 -0.701967 0.71221 39.6938 35.4111)" fill="white"/>
      </g>
      <path d="M24.2691 4.34863C20.2704 4.34863 16.3615 5.55169 13.0367 7.80567C9.71187 10.0596 7.1205 13.2633 5.59027 17.0115C4.06003 20.7598 3.65965 24.8842 4.43976 28.8633C5.21987 32.8424 7.14543 36.4974 9.97294 39.3662C12.8004 42.235 16.4029 44.1886 20.3248 44.9801C24.2467 45.7716 28.3118 45.3654 32.0061 43.8128C35.7004 42.2603 38.858 39.6311 41.0796 36.2578C43.3011 32.8845 44.4869 28.9185 44.4869 24.8615C44.4869 22.1677 43.9639 19.5003 42.9479 17.0115C41.9319 14.5228 40.4426 12.2615 38.5652 10.3567C36.6878 8.45191 34.459 6.94094 32.0061 5.91008C29.5532 4.87921 26.9241 4.34863 24.2691 4.34863ZM24.2691 41.2717C21.0701 41.2717 17.943 40.3093 15.2832 38.5061C12.6233 36.7029 10.5502 34.14 9.32603 31.1414C8.10184 28.1428 7.78154 24.8433 8.40562 21.66C9.02971 18.4767 10.5702 15.5527 12.8322 13.2577C15.0942 10.9626 17.9761 9.39971 21.1136 8.76652C24.2511 8.13332 27.5032 8.4583 30.4587 9.70035C33.4142 10.9424 35.9402 13.0458 37.7175 15.7444C39.4947 18.4431 40.4433 21.6158 40.4433 24.8615C40.4433 29.2137 38.7393 33.3877 35.706 36.4653C32.6727 39.5428 28.5588 41.2717 24.2691 41.2717Z" fill="white"/>
      <path d="M30.3346 22.8101H26.291V18.7075C26.291 18.1635 26.078 17.6417 25.6989 17.2571C25.3197 16.8724 24.8055 16.6562 24.2692 16.6562C23.733 16.6562 23.2188 16.8724 22.8396 17.2571C22.4605 17.6417 22.2475 18.1635 22.2475 18.7075V22.8101H18.2039C17.6677 22.8101 17.1535 23.0262 16.7743 23.4109C16.3951 23.7956 16.1821 24.3173 16.1821 24.8614C16.1821 25.4054 16.3951 25.9272 16.7743 26.3119C17.1535 26.6965 17.6677 26.9127 18.2039 26.9127H22.2475V31.0152C22.2475 31.5593 22.4605 32.081 22.8396 32.4657C23.2188 32.8504 23.733 33.0665 24.2692 33.0665C24.8055 33.0665 25.3197 32.8504 25.6989 32.4657C26.078 32.081 26.291 31.5593 26.291 31.0152V26.9127H30.3346C30.8708 26.9127 31.385 26.6965 31.7642 26.3119C32.1434 25.9272 32.3564 25.4054 32.3564 24.8614C32.3564 24.3173 32.1434 23.7956 31.7642 23.4109C31.385 23.0262 30.8708 22.8101 30.3346 22.8101Z" fill="white"/>
    </g>
  </g>
  <defs>
    <filter id="filter0_d_153_281" x="0.0512695" y="4.34863" width="62.0737" height="62.8628" filterUnits="userSpaceOnUse" color-interpolation-filters="sRGB">
      <feFlood flood-opacity="0" result="BackgroundImageFix"/>
      <feColorMatrix in="SourceAlpha" type="matrix" values="0 0 0 0 0 0 0 0 0 0 0 0 0 0 0 0 0 0 127 0" result="hardAlpha"/>
      <feOffset dy="4"/>
      <feGaussianBlur stdDeviation="2"/>
      <feComposite in2="hardAlpha" operator="out"/>
      <feColorMatrix type="matrix" values="0 0 0 0 0 0 0 0 0 0 0 0 0 0 0 0 0 0 0.25 0"/>
      <feBlend mode="normal" in2="BackgroundImageFix" result="effect1_dropShadow_153_281"/>
      <feBlend mode="normal" in="SourceGraphic" in2="effect1_dropShadow_153_281" result="shape"/>
    </filter>
    <filter id="filter1_d_153_281" x="30.667" y="35.4111" width="31.458" height="31.8003" filterUnits="userSpaceOnUse" color-interpolation-filters="sRGB">
      <feFlood flood-opacity="0" result="BackgroundImageFix"/>
      <feColorMatrix in="SourceAlpha" type="matrix" values="0 0 0 0 0 0 0 0 0 0 0 0 0 0 0 0 0 0 127 0" result="hardAlpha"/>
      <feOffset dy="4"/>
      <feGaussianBlur stdDeviation="2"/>
      <feComposite in2="hardAlpha" operator="out"/>
      <feColorMatrix type="matrix" values="0 0 0 0 0 0 0 0 0 0 0 0 0 0 0 0 0 0 0.25 0"/>
      <feBlend mode="normal" in2="BackgroundImageFix" result="effect1_dropShadow_153_281"/>
      <feBlend mode="normal" in="SourceGraphic" in2="effect1_dropShadow_153_281" result="shape"/>
    </filter>
    <clipPath id="clip0_153_281">
      <rect width="69.3295" height="72.7391" fill="white" transform="translate(0.0078125 0.246094)"/>
    </clipPath>
  </defs>
</svg>
