<svg xmlns="http://www.w3.org/2000/svg" width="39" height="39" viewBox="0 0 39 39" fill="none">
  <path d="M14.2614 16.3894L23.3632 0.621302C22.0356 0.325232 20.6508 0.15332 19.2277 0.15332C14.6434 0.15332 10.4507 1.76738 7.15569 4.46067L14.1563 16.5805L14.2614 16.3894ZM37.4504 13.5242C35.6931 7.93711 31.4335 3.47695 25.9991 1.41401L19.0081 13.5242H37.4504ZM37.947 15.4344H23.6401L24.1941 16.3894L33.2958 32.148C36.4094 28.748 38.329 24.2305 38.329 19.2546C38.329 17.9462 38.1953 16.6664 37.947 15.4344ZM12.6091 19.2546L5.1596 6.36125C2.04609 9.76128 0.126404 14.2787 0.126404 19.2546C0.126404 20.5631 0.260113 21.8429 0.50843 23.0749H14.8153L12.6091 19.2546ZM1.00506 24.985C2.76239 30.5722 7.02198 35.0323 12.4563 37.0953L19.4474 24.985H1.00506ZM22.5322 24.985L15.0827 37.888C16.4198 38.184 17.8047 38.3559 19.2277 38.3559C23.812 38.3559 28.0048 36.7419 31.2997 34.0486L24.2991 21.9288L22.5322 24.985Z" fill="black"/>
</svg>
