<svg width="50" height="50" viewBox="0 0 44 44" fill="none" xmlns="http://www.w3.org/2000/svg">
  <g id="Photo camera" clip-path="url(#clip0_348_20)">
  <path id="Vector" d="M26.1922 7.30633L29.4747 10.8938H36.7394V32.4188H8.0394V10.8938H15.3041L18.5867 7.30633H26.1922ZM27.7707 3.71883H17.0082L13.7256 7.30633H8.0394C6.06628 7.30633 4.4519 8.9207 4.4519 10.8938V32.4188C4.4519 34.392 6.06628 36.0063 8.0394 36.0063H36.7394C38.7125 36.0063 40.3269 34.392 40.3269 32.4188V10.8938C40.3269 8.9207 38.7125 7.30633 36.7394 7.30633H31.0532L27.7707 3.71883ZM22.3894 16.2751C25.3491 16.2751 27.7707 18.6966 27.7707 21.6563C27.7707 24.616 25.3491 27.0376 22.3894 27.0376C19.4297 27.0376 17.0082 24.616 17.0082 21.6563C17.0082 18.6966 19.4297 16.2751 22.3894 16.2751ZM22.3894 12.6876C17.4387 12.6876 13.4207 16.7056 13.4207 21.6563C13.4207 26.6071 17.4387 30.6251 22.3894 30.6251C27.3402 30.6251 31.3582 26.6071 31.3582 21.6563C31.3582 16.7056 27.3402 12.6876 22.3894 12.6876Z" fill="black"/>
  </g>
  <defs>
  <clipPath id="clip0_348_20">
  <rect width="43.05" height="43.05" fill="white" transform="translate(0.865479 0.131294)"/>
  </clipPath>
  </defs>
</svg>
