<svg xmlns="http://www.w3.org/2000/svg" width="39" height="39" viewBox="0 0 39 39" fill="none">
  <path d="M14.135 16.2361L23.2367 0.467982C21.9092 0.171912 20.5244 0 19.1013 0C14.517 0 10.3243 1.61406 7.02928 4.30735L14.0299 16.4271L14.135 16.2361ZM37.324 13.3709C35.5666 7.78379 31.3071 3.32363 25.8727 1.26069L18.8816 13.3709H37.324ZM37.8206 15.2811H23.5137L24.0677 16.2361L33.1694 31.9947C36.2829 28.5947 38.2026 24.0772 38.2026 19.1013C38.2026 17.7929 38.0689 16.5131 37.8206 15.2811ZM12.4827 19.1013L5.0332 6.20793C1.91968 9.60796 0 14.1254 0 19.1013C0 20.4098 0.133709 21.6895 0.382026 22.9216H14.6889L12.4827 19.1013ZM0.878661 24.8317C2.63598 30.4188 6.89557 34.879 12.3299 36.9419L19.321 24.8317H0.878661ZM22.4058 24.8317L14.9563 37.7346C16.2934 38.0307 17.6783 38.2026 19.1013 38.2026C23.6856 38.2026 27.8784 36.5886 31.1733 33.8953L24.1727 21.7755L22.4058 24.8317Z" fill="white"/>
</svg>
