<svg xmlns="http://www.w3.org/2000/svg" width="14" height="26" viewBox="0 0 14 26" fill="none">
  <path fill-rule="evenodd" clip-rule="evenodd" d="M0.645692 25.219C1.147 25.7018 1.95775 25.7018 2.45782 25.219L13.057 14.9899C13.2943 14.7644 13.4832 14.493 13.6123 14.1923C13.7414 13.8915 13.808 13.5676 13.808 13.2403C13.808 12.913 13.7414 12.5891 13.6123 12.2883C13.4832 11.9875 13.2943 11.7161 13.057 11.4907L2.38108 1.18604C2.13878 0.955745 1.81792 0.826305 1.48365 0.824006C1.14938 0.821707 0.826765 0.946722 0.581327 1.17366C0.45974 1.28573 0.362456 1.42157 0.295496 1.57276C0.228537 1.72396 0.193329 1.88729 0.192053 2.05264C0.190776 2.21799 0.223459 2.38184 0.288076 2.53405C0.352693 2.68626 0.447869 2.82358 0.567711 2.93752L10.3388 12.3658C10.4576 12.4785 10.5521 12.6143 10.6167 12.7647C10.6813 12.9152 10.7146 13.0772 10.7146 13.2409C10.7146 13.4046 10.6813 13.5667 10.6167 13.7171C10.5521 13.8676 10.4576 14.0033 10.3388 14.116L0.645692 23.47C0.527 23.5827 0.43248 23.7183 0.367889 23.8686C0.303298 24.019 0.269988 24.1809 0.269988 24.3445C0.269988 24.5082 0.303298 24.6701 0.367889 24.8204C0.43248 24.9708 0.527 25.1064 0.645692 25.219Z" fill="black"/>
</svg>
