<svg xmlns="http://www.w3.org/2000/svg" width="67" height="41" viewBox="0 0 67 41" fill="none">
  <g filter="url(#filter0_d_515_1534)">
    <path d="M5.25793 1.42736L5.26044 1.42471C5.482 1.19124 5.74877 1.00532 6.04449 0.878274C6.34022 0.751224 6.65872 0.685704 6.98058 0.685704C7.30244 0.685704 7.62093 0.751224 7.91666 0.878274C8.21239 1.00532 8.47916 1.19124 8.7007 1.42472L8.70361 1.42773L30.9795 24.5112C30.98 24.5118 30.9806 24.5124 30.9812 24.513C31.2961 24.8442 31.675 25.1079 32.0949 25.2882C32.5155 25.4688 32.9685 25.562 33.4263 25.562C33.8841 25.562 34.3371 25.4688 34.7578 25.2882C35.1778 25.1078 35.5567 24.844 35.8717 24.5128C35.8722 24.5123 35.8727 24.5118 35.8732 24.5112L58.3259 1.24198L58.3259 1.24199L58.3285 1.23931C58.5527 1.00348 58.8229 0.816186 59.1225 0.689029C59.422 0.561873 59.7444 0.497559 60.0698 0.500071C60.3952 0.502582 60.7166 0.571866 61.0141 0.703632C61.3117 0.835397 61.579 1.02684 61.7995 1.2661L61.8 1.26668C62.2543 1.75797 62.5045 2.40376 62.4999 3.07287C62.4953 3.74137 62.2367 4.38308 61.7765 4.86793C61.7761 4.86838 61.7757 4.86882 61.7752 4.86927L37.2351 30.2937L37.2351 30.2937L37.2325 30.2965C36.7421 30.8124 36.152 31.2232 35.4979 31.504C34.8439 31.7847 34.1396 31.9294 33.4278 31.9294C32.716 31.9294 32.0117 31.7847 31.3576 31.504C30.7036 31.2232 30.1134 30.8124 29.6231 30.2965L29.6205 30.2937L5.25754 5.0493L5.25749 5.04925C4.29499 4.0522 4.29439 2.42793 5.25793 1.42736Z" fill="white" stroke="white"/>
  </g>
  <defs>
    <filter id="filter0_d_515_1534" x="0.0351562" y="0" width="66.9648" height="40.4294" filterUnits="userSpaceOnUse" color-interpolation-filters="sRGB">
      <feFlood flood-opacity="0" result="BackgroundImageFix"/>
      <feColorMatrix in="SourceAlpha" type="matrix" values="0 0 0 0 0 0 0 0 0 0 0 0 0 0 0 0 0 0 127 0" result="hardAlpha"/>
      <feOffset dy="4"/>
      <feGaussianBlur stdDeviation="2"/>
      <feComposite in2="hardAlpha" operator="out"/>
      <feColorMatrix type="matrix" values="0 0 0 0 0 0 0 0 0 0 0 0 0 0 0 0 0 0 0.25 0"/>
      <feBlend mode="normal" in2="BackgroundImageFix" result="effect1_dropShadow_515_1534"/>
      <feBlend mode="normal" in="SourceGraphic" in2="effect1_dropShadow_515_1534" result="shape"/>
    </filter>
  </defs>
</svg>
