<svg xmlns="http://www.w3.org/2000/svg" width="51" height="51" viewBox="0 0 51 51" fill="none">
  <path fill-rule="evenodd" clip-rule="evenodd" d="M38.4057 6.59265H36.8395C36.4072 6.59265 36.0564 6.94347 36.0564 7.37574C36.0564 7.808 36.4072 8.15882 36.8395 8.15882H38.4057C38.8379 8.15882 39.1887 7.808 39.1887 7.37574C39.1887 6.94347 38.8379 6.59265 38.4057 6.59265ZM33.7071 6.59265H32.141C31.7087 6.59265 31.3579 6.94347 31.3579 7.37574C31.3579 7.808 31.7087 8.15882 32.141 8.15882H33.7071C34.1394 8.15882 34.4902 7.808 34.4902 7.37574C34.4902 6.94347 34.1394 6.59265 33.7071 6.59265ZM29.0086 6.59265H27.4425C27.0102 6.59265 26.6594 6.94347 26.6594 7.37574C26.6594 7.808 27.0102 8.15882 27.4425 8.15882H29.0086C29.4409 8.15882 29.7917 7.808 29.7917 7.37574C29.7917 6.94347 29.4409 6.59265 29.0086 6.59265ZM41.538 9.72499H8.64841C8.21614 9.72499 7.86532 10.0758 7.86532 10.5081C7.86532 10.9403 8.21614 11.2912 8.64841 11.2912H41.538C41.9703 11.2912 42.3211 10.9403 42.3211 10.5081C42.3211 10.0758 41.9703 9.72499 41.538 9.72499ZM8.64841 11.2912H5.51607C4.21928 11.2912 3.16681 12.3436 3.16681 13.6404V38.6991C3.16681 39.9959 4.21928 41.0484 5.51607 41.0484H44.6703C45.9671 41.0484 47.0196 39.9959 47.0196 38.6991V13.6404C47.0196 12.3436 45.9671 11.2912 44.6703 11.2912H41.538C41.1057 11.2912 40.7549 11.642 40.7549 12.0742C40.7549 12.5065 41.1057 12.8573 41.538 12.8573H44.6703C45.1026 12.8573 45.4534 13.2082 45.4534 13.6404V38.6991C45.4534 39.1314 45.1026 39.4822 44.6703 39.4822H5.51607C5.0838 39.4822 4.73298 39.1314 4.73298 38.6991V13.6404C4.73298 13.2082 5.0838 12.8573 5.51607 12.8573H8.64841C9.08067 12.8573 9.43149 12.5065 9.43149 12.0742C9.43149 11.642 9.08067 11.2912 8.64841 11.2912Z" fill="black"/>
  <path fill-rule="evenodd" clip-rule="evenodd" d="M21.2279 39.9904L18.8786 46.2551C18.7267 46.66 18.9319 47.1118 19.3367 47.263C19.7416 47.4149 20.1934 47.2097 20.3446 46.8049L22.6938 40.5402C22.8457 40.1353 22.6406 39.6835 22.2357 39.5323C21.8309 39.3804 21.379 39.5856 21.2279 39.9904ZM27.4926 40.5402L29.8418 46.8049C29.993 47.2097 30.4448 47.4149 30.8497 47.263C31.2545 47.1118 31.4597 46.66 31.3078 46.2551L28.9585 39.9904C28.8074 39.5856 28.3555 39.3804 27.9507 39.5323C27.5458 39.6835 27.3406 40.1353 27.4926 40.5402Z" fill="black"/>
  <path fill-rule="evenodd" clip-rule="evenodd" d="M18.0454 47.3131H32.1409C32.5732 47.3131 32.924 46.9623 32.924 46.53C32.924 46.0978 32.5732 45.7469 32.1409 45.7469H18.0454C17.6131 45.7469 17.2623 46.0978 17.2623 46.53C17.2623 46.9623 17.6131 47.3131 18.0454 47.3131ZM42.321 35.5668V5.80958C42.321 4.51279 41.2686 3.46033 39.9718 3.46033H10.2146C8.91776 3.46033 7.8653 4.51279 7.8653 5.80958V35.5668C7.8653 35.9991 8.21612 36.3499 8.64838 36.3499C9.08064 36.3499 9.43147 35.9991 9.43147 35.5668V5.80958C9.43147 5.37732 9.78229 5.0265 10.2146 5.0265H39.9718C40.4041 5.0265 40.7549 5.37732 40.7549 5.80958V35.5668C40.7549 35.9991 41.1057 36.3499 41.538 36.3499C41.9702 36.3499 42.321 35.9991 42.321 35.5668Z" fill="black"/>
  <path fill-rule="evenodd" clip-rule="evenodd" d="M3.94989 36.3499H46.2365C46.6688 36.3499 47.0196 35.9991 47.0196 35.5668C47.0196 35.1346 46.6688 34.7837 46.2365 34.7837H3.94989C3.51763 34.7837 3.16681 35.1346 3.16681 35.5668C3.16681 35.9991 3.51763 36.3499 3.94989 36.3499ZM22.7439 15.5661V13.6404C22.7439 13.2082 23.0948 12.8574 23.527 12.8574H26.6594C27.0916 12.8574 27.4425 13.2082 27.4425 13.6404V15.5661C27.8849 15.7054 28.3101 15.8824 28.7142 16.0939L30.0768 14.7313C30.3822 14.4259 30.8786 14.4259 31.184 14.7313L33.3994 16.9466C33.7048 17.252 33.7048 17.7485 33.3994 18.0539L32.0368 19.4165C32.2483 19.8206 32.426 20.2458 32.5646 20.6882H34.4902C34.9225 20.6882 35.2733 21.039 35.2733 21.4713V24.6036C35.2733 25.0359 34.9225 25.3867 34.4902 25.3867H32.5646C32.4252 25.8292 32.2483 26.2544 32.0368 26.6585L33.3994 28.021C33.7048 28.3264 33.7048 28.8229 33.3994 29.1283L31.184 31.3437C30.8786 31.6491 30.3822 31.6491 30.0768 31.3437L28.7142 29.9811C28.3101 30.1925 27.8849 30.3703 27.4425 30.5089V32.4345C27.4425 32.8668 27.0916 33.2176 26.6594 33.2176H23.527C23.0948 33.2176 22.7439 32.8668 22.7439 32.4345V30.5089C22.3015 30.3695 21.8763 30.1925 21.4722 29.9811L20.1096 31.3437C19.8042 31.6491 19.3078 31.6491 19.0024 31.3437L16.787 29.1283C16.4816 28.8229 16.4816 28.3264 16.787 28.021L18.1496 26.6585C17.9381 26.2544 17.7604 25.8292 17.6218 25.3867H15.6962C15.2639 25.3867 14.9131 25.0359 14.9131 24.6036V21.4713C14.9131 21.039 15.2639 20.6882 15.6962 20.6882H17.6218C17.7612 20.2458 17.9381 19.8206 18.1496 19.4165L16.787 18.0539C16.4816 17.7485 16.4816 17.252 16.787 16.9466L19.0024 14.7313C19.3078 14.4259 19.8042 14.4259 20.1096 14.7313L21.4722 16.0939C21.8763 15.8824 22.3015 15.7047 22.7439 15.5661ZM25.8763 14.4235H24.3101V16.1643C24.3101 16.53 24.0572 16.8472 23.7009 16.9286C23.0024 17.0868 22.3477 17.3625 21.7596 17.7336C21.4503 17.9286 21.047 17.884 20.7878 17.6248L19.556 16.393L18.4487 17.5003L19.6805 18.7321C19.9397 18.9913 19.9844 19.3946 19.7894 19.7039C19.4182 20.292 19.1425 20.9466 18.9843 21.6451C18.9029 22.0014 18.5858 22.2544 18.2201 22.2544H16.4793V23.8206H18.2201C18.5858 23.8206 18.9029 24.0735 18.9843 24.4298C19.1425 25.1283 19.4182 25.783 19.7894 26.3711C19.9844 26.6804 19.9397 27.0837 19.6805 27.3429L18.4487 28.5747L19.556 29.6819L20.7878 28.4502C21.047 28.191 21.4503 28.1463 21.7596 28.3413C22.3477 28.7125 23.0024 28.9881 23.7009 29.1463C24.0572 29.2278 24.3101 29.5449 24.3101 29.9106V31.6514H25.8763V29.9106C25.8763 29.5449 26.1292 29.2278 26.4855 29.1463C27.184 28.9881 27.8387 28.7125 28.4268 28.3413C28.7361 28.1463 29.1394 28.191 29.3986 28.4502L30.6304 29.6819L31.7377 28.5747L30.5059 27.3429C30.2467 27.0837 30.202 26.6804 30.397 26.3711C30.7682 25.783 31.0439 25.1283 31.202 24.4298C31.2835 24.0735 31.6006 23.8206 31.9663 23.8206H33.7071V22.2544H31.9663C31.6006 22.2544 31.2835 22.0014 31.202 21.6451C31.0439 20.9466 30.7682 20.292 30.397 19.7039C30.202 19.3946 30.2467 18.9913 30.5059 18.7321L31.7377 17.5003L30.6304 16.393L29.3986 17.6248C29.1394 17.884 28.7361 17.9286 28.4268 17.7336C27.8387 17.3625 27.184 17.0868 26.4855 16.9286C26.1292 16.8472 25.8763 16.53 25.8763 16.1643V14.4235Z" fill="black"/>
  <path fill-rule="evenodd" clip-rule="evenodd" d="M25.0932 18.339C22.5004 18.339 20.3947 20.4447 20.3947 23.0375C20.3947 25.6303 22.5004 27.736 25.0932 27.736C27.686 27.736 29.7917 25.6303 29.7917 23.0375C29.7917 20.4447 27.686 18.339 25.0932 18.339ZM25.0932 19.9052C26.8222 19.9052 28.2255 21.3084 28.2255 23.0375C28.2255 24.7666 26.8222 26.1698 25.0932 26.1698C23.3641 26.1698 21.9609 24.7666 21.9609 23.0375C21.9609 21.3084 23.3641 19.9052 25.0932 19.9052Z" fill="black"/>
</svg>
