<svg xmlns="http://www.w3.org/2000/svg" width="85" height="84" viewBox="0 0 85 84" fill="none">
  <path d="M79.2012 62.3735C82.6771 56.1461 84.5018 49.1329 84.5018 42.0012C84.5018 34.8694 82.6771 27.8562 79.2012 21.6288C79.1831 21.4263 79.1213 21.2301 79.0199 21.0539C78.9186 20.8776 78.7801 20.7255 78.6142 20.608C73.9265 12.706 66.7731 6.56238 58.2538 3.12177C49.7344 -0.318843 40.3208 -0.865995 31.4603 1.56444C22.5997 3.99487 14.7827 9.26832 9.21102 16.574C3.63939 23.8798 0.621582 32.8133 0.621582 42.0012C0.621582 51.189 3.63939 60.1226 9.21102 67.4283C14.7827 74.734 22.5997 80.0075 31.4603 82.4379C40.3208 84.8683 49.7344 84.3212 58.2538 80.8806C66.7731 77.44 73.9265 71.2964 78.6142 63.3943C78.7801 63.2768 78.9186 63.1247 79.0199 62.9484C79.1213 62.7722 79.1831 62.576 79.2012 62.3735ZM18.541 63.6893H25.1617C26.5479 69.1456 29.082 74.2434 32.5949 78.6425C26.4164 75.3092 21.4852 70.0624 18.541 63.6893ZM3.569 43.447H10.7897C10.9216 49.3788 12.0577 55.2454 14.1499 60.7975H8.36641C5.42777 55.4707 3.78431 49.5269 3.569 43.447ZM8.3693 23.2048H14.1528C12.0606 28.7569 10.9244 34.6235 10.7926 40.5553H3.569C3.7852 34.4752 5.42966 28.5314 8.3693 23.2048ZM66.6019 20.3131H59.9812C58.595 14.8568 56.0609 9.75894 52.548 5.35982C58.7265 8.69315 63.6577 13.9399 66.6019 20.3131ZM81.5739 40.5553H74.3532C74.2214 34.6235 73.0852 28.7569 70.993 23.2048H76.7765C79.7151 28.5317 81.3586 34.4754 81.5739 40.5553ZM71.4615 40.5553H62.7963C62.7338 34.7145 62.0421 28.8974 60.7331 23.2048H67.9061C70.124 28.7277 71.3284 34.6052 71.4615 40.5553ZM41.1256 23.2048V40.5553H25.2383C25.3157 34.707 26.0559 28.8863 27.4447 23.2048H41.1256ZM28.2428 20.3131C31.1346 10.7905 35.8366 4.15252 41.1256 3.11582V20.3131H28.2428ZM41.1256 43.447V60.7975H27.4447C26.0559 55.116 25.3157 49.2953 25.2383 43.447H41.1256ZM41.1256 63.6893V80.8865C35.8366 79.8498 31.136 73.2118 28.2428 63.6893H41.1256ZM44.0173 60.7975V43.447H59.9046C59.8272 49.2953 59.087 55.116 57.6982 60.7975H44.0173ZM56.9001 63.6893C54.0083 73.2118 49.3049 79.8498 44.0173 80.8865V63.6893H56.9001ZM44.0173 40.5553V23.2048H57.6982C59.087 28.8863 59.8272 34.707 59.9046 40.5553H44.0173ZM44.0173 20.3131V3.11582C49.3049 4.15252 54.0054 10.7905 56.9001 20.3131H44.0173ZM32.5949 5.35982C29.082 9.75894 26.5479 14.8568 25.1617 20.3131H18.541C21.4852 13.9399 26.4164 8.69315 32.5949 5.35982ZM24.4084 23.2048C23.0999 28.8974 22.4086 34.7145 22.3466 40.5553H13.6814C13.814 34.6052 15.0179 28.7278 17.2354 23.2048H24.4084ZM13.6814 43.447H22.3466C22.4086 49.2878 23.0999 55.1049 24.4084 60.7975H17.2354C15.0179 55.2745 13.814 49.3971 13.6814 43.447ZM52.548 78.6425C56.0609 74.2434 58.595 69.1456 59.9812 63.6893H66.6019C63.6577 70.0624 58.7265 75.3092 52.548 78.6425ZM60.7331 60.7975C62.0421 55.1049 62.7338 49.2879 62.7963 43.447H71.4615C71.3284 49.3972 70.124 55.2746 67.9061 60.7975H60.7331ZM74.3532 43.447H81.5739C81.3577 49.5271 79.7132 55.4709 76.7736 60.7975H70.9901C73.0833 55.2456 74.2204 49.379 74.3532 43.447ZM75.0125 20.3131H69.7857C67.5744 15.3742 64.3761 10.9399 60.3875 7.28283C66.2839 10.3226 71.3151 14.8052 75.0125 20.3131ZM24.7539 7.28283C20.7663 10.9403 17.5685 15.3745 15.3572 20.3131H10.1304C13.8272 14.8052 18.858 10.3226 24.7539 7.28283ZM10.1304 63.6893H15.3572C17.569 68.6279 20.7672 73.0621 24.7554 76.7195C18.8589 73.6799 13.8276 69.1973 10.1304 63.6893ZM60.3875 76.7195C64.3761 73.0625 67.5744 68.6282 69.7857 63.6893H75.0125C71.3151 69.1972 66.2839 73.6797 60.3875 76.7195Z" fill="white"/>
</svg>
