<svg xmlns="http://www.w3.org/2000/svg" width="88" height="97" viewBox="0 0 88 97" fill="none">
  <g clip-path="url(#clip0_54_55)">
    <path d="M0.152466 76.5484C0.152466 82.7609 5.1691 87.7961 11.3571 87.7961H75.8449C82.034 87.7961 87.0499 82.7602 87.0499 76.5484V11.8134C87.0499 5.60061 82.0333 0.56543 75.8453 0.56543H11.3575C5.16842 0.56543 0.152466 5.6013 0.152466 11.8131V76.5484Z" fill="#563D7C"/>
    <path d="M36.1871 39.1508V26.7978H47.0191C48.051 26.7978 49.0456 26.884 50.0035 27.0568C50.9614 27.2292 51.809 27.5372 52.5459 27.9812C53.2825 28.4252 53.8721 29.0416 54.3144 29.8304C54.7563 30.6196 54.9777 31.6306 54.9777 32.8631C54.9777 35.0823 54.3144 36.6852 52.9878 37.6713C51.6616 38.6578 49.9668 39.1508 47.9033 39.1508H36.1871ZM24.6179 17.7732V70.5886H50.1141C52.4722 70.5886 54.7689 70.2929 57.0041 69.701C59.2394 69.1091 61.2289 68.1969 62.9729 66.9641C64.7166 65.7313 66.1046 64.1407 67.1362 62.193C68.1681 60.245 68.6837 57.9395 68.6837 55.2766C68.6837 51.9724 67.8853 49.1493 66.2889 46.807C64.6922 44.4644 62.2726 42.8247 59.0303 41.8877C61.3884 40.7537 63.1694 39.2987 64.3731 37.5234C65.5764 35.7482 66.1783 33.5292 66.1783 30.866C66.1783 28.4003 65.773 26.3293 64.9624 24.6525C64.1518 22.976 63.0096 21.6321 61.5357 20.6211C60.0622 19.6101 58.2937 18.8827 56.2302 18.439C54.1671 17.995 51.8826 17.7732 49.3772 17.7732H24.6179ZM36.1871 61.564V47.0657H48.7876C51.293 47.0657 53.3073 47.6449 54.8303 48.8041C56.3531 49.963 57.1148 51.8984 57.1148 54.6108C57.1148 55.9918 56.8813 57.1258 56.4145 58.0134C55.9478 58.9011 55.3215 59.604 54.5354 60.1216C53.7496 60.6396 52.8405 61.0093 51.809 61.2314C50.7771 61.4529 49.6966 61.564 48.5666 61.564H36.1871Z" fill="white"/>
  </g>
  <defs>
    <clipPath id="clip0_54_55">
      <rect width="86.8246" height="96.3541" fill="white" transform="translate(0.551544 0.171875)"/>
    </clipPath>
  </defs>
</svg>
