<svg xmlns="http://www.w3.org/2000/svg" width="110" height="97" viewBox="0 0 110 97" fill="none">
  <g clip-path="url(#clip0_54_58)">
    <path d="M12.457 42.4644C12.457 19.0943 31.7048 0.149658 55.4487 0.149658C79.1927 0.149658 98.4405 19.0943 98.4405 42.4644C98.4405 65.8344 79.1927 84.7791 55.4487 84.7791C31.7048 84.7791 12.457 65.8344 12.457 42.4644Z" fill="#333333"/>
    <path d="M46.8504 67.8531C49.1308 67.8531 51.3179 66.9615 52.9304 65.3744C54.5429 63.7873 55.4488 61.6347 55.4488 59.3902V50.9272H46.8504C44.57 50.9272 42.383 51.8189 40.7705 53.406C39.158 54.9931 38.2521 57.1457 38.2521 59.3902C38.2521 61.6347 39.158 63.7873 40.7705 65.3744C42.383 66.9615 44.57 67.8531 46.8504 67.8531Z" fill="#0ACF83"/>
    <path d="M38.2521 42.4644C38.2521 40.2199 39.158 38.0673 40.7705 36.4802C42.383 34.8931 44.57 34.0015 46.8504 34.0015H55.4488V50.9273H46.8504C45.7213 50.9273 44.6032 50.7084 43.56 50.2831C42.5168 49.8578 41.5689 49.2345 40.7705 48.4486C39.972 47.6627 39.3387 46.7298 38.9066 45.703C38.4745 44.6763 38.2521 43.5758 38.2521 42.4644Z" fill="#A259FF"/>
    <path d="M38.2521 25.5384C38.2521 23.2939 39.158 21.1413 40.7705 19.5542C42.383 17.9671 44.57 17.0754 46.8504 17.0754H55.4488V34.0013H46.8504C44.57 34.0013 42.383 33.1097 40.7705 31.5226C39.158 29.9355 38.2521 27.7829 38.2521 25.5384Z" fill="#F24E1E"/>
    <path d="M55.4488 17.0754H64.0471C66.3275 17.0754 68.5146 17.9671 70.1271 19.5542C71.7396 21.1413 72.6455 23.2939 72.6455 25.5384C72.6455 27.7829 71.7396 29.9355 70.1271 31.5226C68.5146 33.1097 66.3275 34.0013 64.0471 34.0013H55.4488V17.0754Z" fill="#FF7262"/>
    <path d="M72.6455 42.4644C72.6455 44.7089 71.7396 46.8615 70.1271 48.4486C68.5146 50.0357 66.3275 50.9273 64.0471 50.9273C61.7667 50.9273 59.5797 50.0357 57.9672 48.4486C56.3547 46.8615 55.4488 44.7089 55.4488 42.4644C55.4488 40.2199 56.3547 38.0673 57.9672 36.4802C59.5797 34.8931 61.7667 34.0015 64.0471 34.0015C66.3275 34.0015 68.5146 34.8931 70.1271 36.4802C71.7396 38.0673 72.6455 40.2199 72.6455 42.4644Z" fill="#1ABCFE"/>
  </g>
  <defs>
    <clipPath id="clip0_54_58">
      <rect width="109.06" height="96.3541" fill="white" transform="translate(0.949799 0.149658)"/>
    </clipPath>
  </defs>
</svg>
