<svg xmlns="http://www.w3.org/2000/svg" width="96" height="96" viewBox="0 0 96 96" fill="none">
  <g clip-path="url(#clip0_55_81)">
  <path d="M93.1314 43.7613L51.9771 2.60924C49.6087 0.239303 45.7648 0.239303 43.3926 2.60924L34.8485 11.1556L45.6886 21.9958C48.2087 21.1454 51.0968 21.7158 53.1046 23.7236C55.1228 25.7441 55.6896 28.6569 54.8167 31.1851L65.2641 41.634C67.7916 40.7627 70.7089 41.3256 72.7264 43.3476C75.5488 46.1678 75.5488 50.7397 72.7264 53.5613C69.9039 56.3838 65.3336 56.3838 62.5097 53.5613C60.3876 51.4378 59.8627 48.3205 60.9379 45.7056L51.1954 35.9623L51.1939 61.6037C51.8823 61.9435 52.5311 62.3975 53.1046 62.9687C55.9263 65.7888 55.9263 70.3592 53.1046 73.1854C50.2829 76.0055 45.7096 76.0055 42.8909 73.1854C40.0699 70.36 39.8385 65.7896 42.6587 62.9687C43.356 62.272 44.0437 61.7456 44.7904 61.3932V35.5143C44.0437 35.1619 43.3568 34.6392 42.6579 33.9381C40.5217 31.8026 40.1222 28.6666 41.2183 26.0413L30.591 15.3542L2.40112 43.5709C0.0304346 45.9431 0.045368 49.7869 2.41605 52.1576L43.5771 93.3097C45.9462 95.6796 49.7931 95.6796 52.166 93.3097L93.1284 52.3488C95.4991 49.9773 95.5013 46.1312 93.1314 43.7613Z" fill="#F34F29"/>
  </g>
  <defs>
  <clipPath id="clip0_55_81">
  <rect width="95.5739" height="95.5739" fill="white" transform="translate(-0.00991821 0.171875)"/>
  </clipPath>
  </defs>
</svg>
