<svg xmlns="http://www.w3.org/2000/svg" width="97" height="96" viewBox="0 0 97 96" fill="none">
  <path d="M48.3741 9.1189C38.9181 9.11929 29.7708 12.4843 22.569 18.612C15.3671 24.7396 10.5806 33.2299 9.06583 42.5637C7.55111 51.8976 9.40705 61.4658 14.3016 69.5565C19.1961 77.6471 26.8097 83.7322 35.7803 86.7229C37.7714 87.0714 38.5181 85.8768 38.5181 84.8313C38.5181 83.8856 38.4683 80.7495 38.4683 77.4144C28.4628 79.2562 25.8744 74.9754 25.0779 72.7354C24.1942 70.5568 22.7932 68.6262 20.9961 67.1104C19.6023 66.3637 17.6112 64.5219 20.9463 64.4722C22.2198 64.6104 23.4412 65.0535 24.507 65.764C25.5728 66.4746 26.4517 67.4315 27.069 68.5539C27.6137 69.5323 28.3461 70.3937 29.2242 71.0886C30.1023 71.7835 31.1089 72.2983 32.1864 72.6035C33.2638 72.9087 34.3908 72.9983 35.503 72.8671C36.6151 72.736 37.6904 72.3867 38.6673 71.8392C38.8397 69.8148 39.7419 67.9219 41.206 66.5131C32.3455 65.5176 23.0868 62.0827 23.0868 46.8508C23.0308 42.893 24.4913 39.0638 27.1686 36.1485C25.9512 32.7087 26.0936 28.9338 27.5668 25.5956C27.5668 25.5956 30.9018 24.5502 38.518 29.6774C45.0341 27.8852 51.9131 27.8852 58.4292 29.6774C66.0452 24.5004 69.3804 25.5956 69.3804 25.5956C70.8538 28.9338 70.9963 32.7088 69.7786 36.1485C72.464 39.0588 73.9257 42.8914 73.8605 46.8508C73.8605 62.1326 64.5519 65.5176 55.6914 66.5131C56.6418 67.4764 57.3738 68.6329 57.8376 69.9041C58.3014 71.1753 58.4862 72.5314 58.3795 73.8803C58.3795 79.2066 58.3297 83.4874 58.3297 84.8315C58.3297 85.8769 59.0763 87.1213 61.0674 86.7231C70.0222 83.708 77.614 77.6086 82.4876 69.5138C87.3613 61.4191 89.1996 51.8557 87.6744 42.5309C86.1492 33.2061 81.3597 24.7268 74.161 18.6066C66.9622 12.4865 57.8228 9.12381 48.3741 9.1189Z" fill="black"/>
</svg>
