<svg xmlns="http://www.w3.org/2000/svg" width="116" height="97" viewBox="0 0 116 97" fill="none">
  <g clip-path="url(#clip0_54_49)">
    <path d="M88.5443 19.0647L82.0424 88.5737L52.8159 96.3057L23.6699 88.5843L17.1747 19.0647H88.5443Z" fill="#E44D26"/>
    <path d="M52.8595 90.3955L76.476 84.1475L82.032 24.7488H52.8595V90.3955Z" fill="#F16529"/>
    <path d="M40.22 41.8014H52.8595V33.2751H30.4555L30.6692 35.5626L32.8654 59.0588H52.8595V50.5325H41.0366L40.22 41.8014ZM42.2337 63.3221H33.2646L34.5162 76.7097L52.8184 81.5579L52.8595 81.5473V72.6763L52.8204 72.6862L42.8699 70.1222L42.2337 63.3221Z" fill="#EBEBEB"/>
    <path d="M23.8148 0.172119H28.3553V4.45302H32.5089V0.172119H37.0497V13.1358H32.5092V8.7948H28.3556V13.1358H23.8151L23.8148 0.172119ZM43.0203 4.47118H39.0237V0.172119H51.5609V4.47118H47.5617V13.1358H43.0212V4.47118H43.0203ZM53.5505 0.172119H58.2849L61.1972 4.7272L64.1067 0.172119H68.843V13.1358H64.321V6.71028L61.1972 11.3196H61.1189L57.9931 6.71028V13.1358H53.5505V0.172119ZM71.1027 0.172119H75.6446V8.85086H82.0298V13.1358H71.1024V0.172119H71.1027Z" fill="black"/>
    <path d="M52.8287 59.0588H63.8308L62.7935 70.1168L52.8284 72.6835V81.5539L71.1451 76.7097L71.2794 75.2691L73.3793 52.8221L73.5972 50.5325H52.8287V59.0588ZM52.8287 41.7806V41.8014H74.4102L74.5893 39.8851L74.9966 35.5626L75.2101 33.2751H52.8287V41.7806Z" fill="white"/>
  </g>
  <defs>
    <clipPath id="clip0_54_49">
      <rect width="114.849" height="96.3771" fill="white" transform="translate(0.184174 0.171875)"/>
    </clipPath>
  </defs>
</svg>
