<svg xmlns="http://www.w3.org/2000/svg" width="97" height="97" viewBox="0 0 97 97" fill="none">
  <g clip-path="url(#clip0_54_43)">
  <path d="M0.57251 0.149658H96.9266V96.5038H0.57251V0.149658Z" fill="#F7DF1E"/>
  <path d="M25.9076 80.6703L33.281 76.2079C34.7037 78.73 35.9977 80.8641 39.1017 80.8641C42.077 80.8641 43.9533 79.7004 43.9533 75.1732V44.3858H53.008V75.3012C53.008 84.6795 47.5105 88.9485 39.4898 88.9485C32.2463 88.9485 28.0417 85.1971 25.9072 80.6695M57.9262 79.7L65.2988 75.4314C67.2398 78.6009 69.7623 80.9293 74.2247 80.9293C77.9769 80.9293 80.3692 79.0534 80.3692 76.4661C80.3692 73.3617 77.9114 72.2619 73.7719 70.4515L71.5087 69.4804C64.9758 66.7001 60.6425 63.2073 60.6425 55.8339C60.6425 49.0424 65.8167 43.8679 73.9018 43.8679C79.6582 43.8679 83.7976 45.8733 86.7726 51.1122L79.7222 55.6401C78.1696 52.859 76.4887 51.7595 73.9014 51.7595C71.2494 51.7595 69.5677 53.4412 69.5677 55.6401C69.5677 58.3564 71.2494 59.4566 75.1299 61.1383L77.3935 62.1082C85.0905 65.4072 89.4238 68.7702 89.4238 76.337C89.4238 84.4872 83.0208 88.9496 74.4185 88.9496C66.0105 88.9496 60.5774 84.9396 57.9258 79.7004" fill="black"/>
  </g>
  <defs>
  <clipPath id="clip0_54_43">
  <rect width="96.3541" height="96.3541" fill="white" transform="translate(0.57251 0.149658)"/>
  </clipPath>
  </defs>
</svg>
