<svg xmlns="http://www.w3.org/2000/svg" width="103" height="103" viewBox="0 0 103 103" fill="none">
  <path d="M63.6962 44.5123C64.057 41.5077 63.9491 41.0669 66.1868 41.5534L66.7549 41.6037C68.4759 41.6819 70.7273 41.3267 72.0491 40.7124C74.896 39.3917 76.5839 37.1854 73.7769 37.7649C67.3733 39.0856 66.9331 36.9182 66.9331 36.9182C73.6952 26.8854 76.5222 14.1502 74.0824 11.0326C67.4281 2.52953 55.9091 6.55039 55.7161 6.65488L55.6544 6.66688C54.3891 6.40365 52.9737 6.2472 51.3829 6.22151C48.4852 6.17412 46.2863 6.98149 44.6185 8.24622C44.6185 8.24622 24.0693 -0.219763 25.0251 18.8928C25.2284 22.9588 30.8532 49.6585 37.5617 41.594C40.0135 38.6454 42.3831 36.1519 42.3831 36.1519C43.5599 36.9336 44.9685 37.3321 46.4462 37.1888L46.5604 37.0918C46.525 37.4578 46.5404 37.8158 46.6066 38.2394C44.8783 40.1711 45.3864 40.5102 41.9308 41.2211C38.4353 41.9417 40.4891 43.2241 41.8292 43.5593C43.4554 43.9664 47.2153 44.5425 49.7567 40.9847L49.6557 41.3907C50.334 41.9331 50.2878 45.2888 50.3837 47.6864C50.4796 50.0839 50.6406 52.321 51.1294 53.6412C51.6182 54.9601 52.1948 58.3581 56.7359 57.3851C60.5306 56.5709 63.4318 55.4004 63.6962 44.5123Z" fill="black"/>
  <path d="M55.257 59.7545C53.2483 59.7545 51.9407 58.9779 51.1459 58.2276C49.9469 57.0965 49.4712 55.6388 49.1875 54.7681L49.0647 54.4043C48.4926 52.8598 48.299 50.6364 48.1842 47.7735C48.1671 47.3441 48.1545 46.9005 48.1414 46.4305C48.1317 46.0874 48.1197 45.6569 48.1026 45.2052C47.3889 45.5472 46.6249 45.7888 45.8204 45.9269C44.4043 46.169 42.8821 46.0902 41.2947 45.6934C40.175 45.4136 39.0114 44.8335 38.3485 43.9371C36.4157 45.63 34.572 45.3999 33.5676 45.0653C31.7959 44.4744 30.2102 42.8145 28.7194 39.9893C27.6579 37.9777 26.6307 35.3557 25.6663 32.1976C23.9877 26.6973 22.9211 20.9041 22.8263 19.0028C22.5282 13.0491 24.1304 8.79185 27.5883 6.34975C33.044 2.49618 41.309 4.76184 44.3221 5.79075C46.3462 4.57056 48.7278 3.97617 51.4194 4.01956C52.8652 4.04297 54.2412 4.1703 55.5197 4.39755C56.8529 3.97845 59.4874 3.37663 62.5028 3.41375C68.0585 3.47998 72.6623 5.64515 75.8159 9.67516C78.0661 12.5506 76.9538 18.5882 76.0899 21.9319C74.8755 26.634 72.7463 31.6363 70.1312 35.9907C70.8415 35.9958 71.8698 35.9102 73.3327 35.6087C76.2184 35.0126 77.0618 36.5599 77.2907 37.2525C78.2083 40.0315 74.22 42.131 72.9758 42.7083C71.3816 43.4489 68.7831 43.8994 66.6544 43.8017L66.5614 43.7955L66.0024 43.7463L65.947 44.2123L65.8939 44.6685C65.7511 50.1865 64.9626 53.6809 63.3404 55.9905C61.6406 58.4109 59.2773 59.0898 57.1961 59.5358C56.4875 59.6882 55.8423 59.7545 55.257 59.7545ZM51.0306 39.6707C52.3273 40.7081 52.4409 42.6603 52.542 46.3089C52.5546 46.764 52.5665 47.1951 52.5825 47.5976C52.6316 48.8161 52.7464 51.6699 53.1929 52.8758C53.2563 53.046 53.3128 53.2195 53.3722 53.4023C53.8701 54.9279 54.1202 55.6925 56.2734 55.2311C58.0817 54.844 59.0107 54.4963 59.7381 53.4605C60.7956 51.9542 61.3871 48.9263 61.4956 44.4578L63.695 44.5115L61.5104 44.2494L61.5744 43.7041C61.7839 41.9066 61.9347 40.6071 63.1366 39.7483C64.1004 39.0591 65.1996 39.1259 66.0749 39.2835C65.1133 38.5578 64.8473 37.7048 64.7765 37.3553L64.5932 36.452L65.1082 35.6869C68.0773 31.2812 70.5263 25.8666 71.827 20.831C73.1631 15.6568 72.7554 12.9086 72.3483 12.389C66.9548 5.4967 57.6003 8.34191 56.624 8.66566L56.4584 8.75473L55.6304 8.90947L55.2062 8.82154C54.0374 8.57887 52.739 8.44469 51.3463 8.42185C49.1589 8.3853 47.3946 8.90205 45.9477 10L44.9439 10.7612L43.7785 10.281C41.2902 9.26348 33.9793 7.21764 30.1217 9.9498C27.9805 11.4663 27.0053 14.4383 27.2223 18.7829C27.2936 20.2172 28.2689 25.6467 29.8756 30.9135C32.0973 38.1912 34.1163 40.6082 34.9591 40.8897C35.1059 40.9394 35.4878 40.6425 35.8675 40.1868C38.3376 37.216 40.6866 34.7396 40.7854 34.6352L42.0593 33.2951L43.5992 34.3183C44.2199 34.7311 44.9045 34.9646 45.608 35.0086L49.2811 31.8762L48.7489 37.3062C48.737 37.4284 48.7312 37.594 48.7792 37.9023L48.9391 38.9318L48.2465 39.7072L48.1665 39.7969L50.1844 40.7287L51.0306 39.6707Z" fill="black"/>
  <path d="M73.7786 37.7647C67.3745 39.0854 66.9342 36.9174 66.9342 36.9174C73.6958 26.8846 76.5222 14.1488 74.0829 11.0318C67.4281 2.52874 55.9091 6.55018 55.7167 6.65467L55.6544 6.66552C54.3891 6.40344 52.9737 6.24699 51.3823 6.2213C48.4846 6.1739 46.2863 6.98071 44.6185 8.24543C44.6185 8.24543 24.0687 -0.219975 25.0246 18.8926C25.2278 22.9585 30.8526 49.6583 37.5611 41.5938C40.0129 38.6452 42.3819 36.1517 42.3819 36.1517C43.5587 36.9334 44.9673 37.3319 46.4445 37.1886L46.5592 37.0915C46.5238 37.4575 46.5398 37.8156 46.6049 38.2392C44.8771 40.1709 45.3841 40.51 41.9297 41.2209C38.4336 41.9415 40.4874 43.2239 41.8286 43.5591C43.4542 43.9662 47.2147 44.5423 49.7556 40.9845L49.654 41.3905C50.3312 41.9329 50.8068 44.9186 50.7268 47.6251C50.6469 50.3315 50.5938 52.1895 51.1277 53.641C51.6615 55.0918 52.1931 58.3578 56.7347 57.3849C60.5295 56.5712 62.496 54.4637 62.77 50.9488C62.9642 48.4496 63.4033 48.819 63.4312 46.5842L63.7841 45.5261C64.1901 42.1379 63.8486 41.045 66.1868 41.5538L66.7549 41.6035C68.4759 41.6823 70.7278 41.3265 72.0497 40.7122C74.8966 39.3909 76.585 37.1852 73.7786 37.7647Z" fill="#336791"/>
  <path d="M55.4865 58.3978C51.7004 58.3984 50.5013 55.4001 50.0102 54.1742C49.2925 52.3779 49.1372 45.4051 49.2971 39.6867C49.3085 39.2813 49.6437 38.9609 50.0514 38.9735C50.4562 38.9849 50.7754 39.3224 50.7645 39.7278C50.5801 46.3232 50.8422 52.2997 51.3732 53.6289C52.2028 55.7028 53.4607 57.5168 57.0185 56.7551C60.3959 56.0305 61.6606 54.7498 62.2236 51.4849C62.6564 48.9789 63.5106 41.8501 63.6156 40.4432C63.6459 40.039 63.9965 39.7352 64.4019 39.766C64.8061 39.7963 65.1093 40.1486 65.0791 40.5523C64.9695 42.0163 64.1187 49.1319 63.6693 51.7344C63.0041 55.5914 61.2849 57.3409 57.3257 58.19C56.6536 58.3333 56.0421 58.3978 55.4865 58.3978ZM34.9591 43.7549C34.5977 43.7555 34.2699 43.6893 33.9861 43.5945C31.5269 42.774 29.1847 38.7691 27.0241 31.69C25.3797 26.3011 24.3377 20.6769 24.2463 18.8492C23.9751 13.4305 25.3711 9.59637 28.3945 7.45404C34.3761 3.21562 44.4391 7.25191 44.8645 7.42549C45.2397 7.57908 45.4195 8.00732 45.2659 8.38245C45.1129 8.75702 44.6841 8.93745 44.3095 8.78386V8.78443C44.2125 8.74446 34.5628 4.8789 29.2401 8.65367C26.6547 10.4871 25.4676 13.8925 25.7114 18.7766C25.7885 20.316 26.7621 25.806 28.4276 31.2624C30.3564 37.5814 32.5518 41.5698 34.4504 42.2024C34.7478 42.3023 35.6546 42.6044 36.9518 41.0456C39.3911 38.1107 41.6322 35.7686 41.6545 35.7452C41.9348 35.4522 42.3996 35.4431 42.6919 35.7229C42.9843 36.0032 42.9946 36.468 42.7142 36.7604C42.6919 36.7832 40.4851 39.0905 38.0801 41.9837C36.941 43.3529 35.8487 43.7549 34.9591 43.7549ZM66.8885 37.5717C66.7475 37.5717 66.6047 37.5312 66.4791 37.4461C66.1428 37.22 66.0537 36.7638 66.2804 36.4275C73.1157 26.2845 75.5149 14.0295 73.46 11.4041C70.8734 8.09925 67.2208 6.37259 62.6044 6.27381C59.186 6.19958 56.4686 7.07262 56.025 7.22507L55.9136 7.27018C55.4671 7.41064 55.1245 7.16569 54.9955 6.87962C54.8425 6.54103 54.9681 6.14077 55.2856 5.94835L55.4831 5.86727L55.4734 5.87013L55.4837 5.8667C56.238 5.59091 58.9964 4.76299 62.4137 4.80238C67.5223 4.85606 71.7419 6.82652 74.6162 10.4991C75.9763 12.2372 75.9792 16.2415 74.6248 21.4848C73.2441 26.8304 70.6462 32.5762 67.4978 37.248C67.3562 37.4587 67.1243 37.5717 66.8885 37.5717ZM67.2374 42.2669C66.0703 42.2669 65.0243 42.1031 64.3979 41.7274C63.7538 41.3419 63.6311 40.8172 63.6151 40.5391C63.4392 37.4535 65.1419 36.9162 66.0104 36.6713C65.8893 36.4886 65.7169 36.2733 65.5393 36.0512C65.0328 35.4186 64.3397 34.5518 63.8052 33.2557C63.7218 33.0535 63.4592 32.5825 63.1554 32.0378C61.5093 29.0863 58.0845 22.9443 60.2845 19.7987C61.3032 18.3433 63.3302 17.7706 66.3175 18.0903C65.4388 15.413 61.2535 7.03722 51.3241 6.87449C48.3373 6.82424 45.8877 7.74295 44.0475 9.60093C39.9267 13.7628 40.0763 21.293 40.078 21.3678C40.0888 21.7732 39.7685 22.1101 39.3637 22.1203C38.9583 22.1329 38.6214 21.8114 38.6111 21.406C38.602 21.072 38.4478 13.1702 43.0048 8.56802C45.1375 6.41427 47.9444 5.3511 51.3481 5.40649C57.702 5.51098 61.7908 8.74046 64.1027 11.4321C66.6219 14.3647 67.8575 17.5999 67.9591 18.679C68.0351 19.4818 67.4589 19.6428 67.3425 19.6662L67.0781 19.6725C64.1461 19.2032 62.2653 19.5286 61.4876 20.6403C59.814 23.0316 63.0538 28.8414 64.4373 31.3229C64.7907 31.9555 65.0454 32.4129 65.1619 32.6955C65.6164 33.7975 66.2091 34.5381 66.6853 35.1331C67.1038 35.6567 67.4669 36.11 67.5971 36.6433C67.6571 36.7489 68.5124 38.0131 73.5856 36.9659C74.8572 36.7038 75.6194 36.9282 75.8524 37.6328C76.3109 39.0197 73.7386 40.6368 72.3146 41.2985C71.0367 41.8918 69 42.2669 67.2374 42.2669ZM65.0785 40.4181C65.239 40.5808 66.044 40.8606 67.7119 40.7892C69.1942 40.7253 70.7581 40.4027 71.6968 39.9676C72.897 39.4103 73.6975 38.7874 74.1126 38.362L73.8819 38.4042C70.6382 39.074 68.344 38.9849 67.0632 38.1387C66.9713 38.0788 66.8897 38.016 66.8149 37.9543C66.6761 38.0091 66.5476 38.0451 66.4563 38.0708C65.7294 38.2746 64.978 38.4853 65.0785 40.4181ZM44.1251 44.5172C43.3195 44.5172 42.4715 44.4081 41.6054 44.1906C40.7083 43.9662 39.1952 43.2907 39.2186 42.1813C39.2443 40.936 41.0549 40.5625 41.7373 40.4221C44.1993 39.9151 44.3598 39.7118 45.1295 38.7348C45.3539 38.4499 45.6331 38.0953 46.0134 37.6699C46.5786 37.0379 47.1964 36.717 47.8496 36.717C48.3041 36.717 48.6776 36.8717 48.9237 36.9733C49.7093 37.2988 50.3648 38.0856 50.6343 39.0277C50.8776 39.8774 50.7617 40.695 50.3077 41.3299C48.8186 43.4158 46.6808 44.5172 44.1251 44.5172ZM40.8037 42.2447C41.0252 42.4154 41.4683 42.6438 41.9611 42.7677C42.7114 42.955 43.4388 43.0503 44.1251 43.0503C46.2161 43.0503 47.8942 42.1841 49.1138 40.4775C49.3679 40.1212 49.2919 39.6695 49.224 39.4314C49.0812 38.9335 48.7272 38.4807 48.3624 38.3289C48.1642 38.2466 48.0004 38.1838 47.8496 38.1838C47.7686 38.1838 47.5225 38.1838 47.1074 38.648C46.7568 39.0397 46.505 39.3595 46.2817 39.6421C45.3236 40.8589 44.8845 41.2717 42.033 41.8593C41.3376 42.0031 40.9807 42.1482 40.8037 42.2447ZM46.4462 38.8599C46.0899 38.8599 45.7775 38.6001 45.7216 38.2375C45.7027 38.1159 45.6907 37.9931 45.685 37.8698C43.8156 37.8344 42.0125 37.0327 40.6438 35.6041C38.9132 33.7981 38.1252 31.296 38.4826 28.7397C38.8709 25.9636 38.7259 23.513 38.6477 22.1963C38.626 21.8303 38.6105 21.5659 38.6117 21.3826C38.6128 21.1508 38.6174 20.5347 40.6758 19.4915C41.4078 19.1204 42.8758 18.4729 44.4791 18.3067C47.1365 18.0327 48.8877 19.2157 49.4118 21.639C50.8267 28.1825 49.5238 31.0768 48.5725 33.19C48.3949 33.5828 48.2276 33.9551 48.094 34.3148L47.9758 34.6329C47.4734 35.9804 47.0388 37.1446 47.1725 38.0148C47.2335 38.4156 46.9589 38.7896 46.5586 38.8519L46.4462 38.8599ZM40.0837 21.5853L40.1128 22.1095C40.1939 23.477 40.3446 26.0224 39.9358 28.9436C39.6412 31.0517 40.2852 33.1101 41.703 34.5895C42.8233 35.7589 44.2987 36.4041 45.8147 36.4041H45.8461C46.0162 35.6886 46.2977 34.9338 46.6009 34.1201L46.7185 33.8044C46.8698 33.3978 47.0468 33.0044 47.2341 32.5882C48.15 30.5532 49.2897 28.0203 47.977 21.949C47.7166 20.7471 47.0862 20.0511 46.0499 19.8215C43.9213 19.3511 40.7494 20.9521 40.0837 21.5853ZM44.5122 21.2741C44.4757 21.5334 44.9879 22.226 45.6548 22.3185C46.3211 22.4115 46.8915 21.8702 46.9275 21.611C46.9635 21.3512 46.4519 21.0657 45.7844 20.9727C45.118 20.8796 44.5476 21.0143 44.5122 21.2741ZM45.8084 22.5743L45.6211 22.5611C45.2071 22.5035 44.7886 22.2425 44.5025 21.8628C44.402 21.7298 44.2376 21.4706 44.2701 21.2399C44.317 20.9013 44.7292 20.6992 45.3738 20.6992C45.5183 20.6992 45.6679 20.71 45.8192 20.7306C46.1709 20.7797 46.4981 20.8813 46.7396 21.016C47.1582 21.2502 47.189 21.5105 47.1702 21.6458C47.1182 22.0187 46.5232 22.5743 45.8084 22.5743ZM44.7555 21.3175C44.7766 21.4774 45.1723 22.0056 45.6885 22.0769L45.8078 22.0855C46.284 22.0855 46.6403 21.7104 46.682 21.5876C46.638 21.5042 46.332 21.2958 45.7507 21.2159C45.6222 21.1976 45.4949 21.1885 45.3733 21.1885C45.001 21.1879 44.8017 21.2718 44.7555 21.3175ZM64.809 20.7448C64.845 21.0046 64.3339 21.6972 63.6665 21.7897C62.9996 21.8822 62.4291 21.3415 62.3926 21.0817C62.3572 20.8225 62.8688 20.5364 63.5357 20.4439C64.2026 20.3503 64.7725 20.4862 64.809 20.7448ZM63.5129 21.9222C62.8705 21.9222 62.3172 21.4226 62.2715 21.0988C62.219 20.71 62.8591 20.4142 63.5191 20.3229C63.6642 20.3023 63.8081 20.292 63.9468 20.292C64.5161 20.292 64.8929 20.4593 64.9306 20.7283C64.9552 20.903 64.8216 21.1719 64.5909 21.414C64.439 21.5739 64.1193 21.8508 63.6842 21.9108L63.5129 21.9222ZM63.9462 20.5364C63.8189 20.5364 63.6864 20.5461 63.5523 20.5644C62.8888 20.6563 62.4942 20.923 62.5131 21.0657C62.5353 21.2222 62.9584 21.6778 63.5123 21.6778L63.6488 21.6681C64.0108 21.6173 64.2826 21.3815 64.4122 21.245C64.6154 21.0309 64.6965 20.8299 64.6868 20.7608C64.6748 20.6712 64.4304 20.5364 63.9462 20.5364ZM65.77 35.6407C65.6295 35.6407 65.4879 35.6007 65.3623 35.5168C65.0254 35.2906 64.9352 34.8356 65.1607 34.4987C66.7229 32.1651 66.4369 29.7847 66.1605 27.4836C66.0423 26.5026 65.9207 25.4891 65.9527 24.5156C65.9847 23.5147 66.1114 22.689 66.2347 21.8897C66.3803 20.9435 66.518 20.0488 66.4609 18.9879C66.4386 18.5837 66.7492 18.2382 67.154 18.2154C67.56 18.1937 67.9043 18.5043 67.9266 18.9091C67.9917 20.1219 67.8358 21.1337 67.685 22.1129C67.5686 22.8683 67.4481 23.6494 67.419 24.5624C67.391 25.424 67.5012 26.3393 67.6177 27.3077C67.9123 29.7555 68.2452 32.5299 66.3804 35.3146C66.2387 35.5259 66.0064 35.6407 65.77 35.6407Z" fill="white"/>
  <path d="M2.80944 82.3736C3.68041 82.2286 4.81914 82.1042 6.27023 82.1042C8.05123 82.1042 9.3573 82.5186 10.186 83.2645C10.9526 83.9275 11.4084 84.9427 11.4084 86.1866C11.4084 87.4504 11.0347 88.4449 10.3303 89.1701C9.37722 90.1853 7.82333 90.7032 6.06225 90.7032C5.52357 90.7032 5.02632 90.6825 4.61275 90.5789V96.1737H2.80944V82.3736ZM4.61275 89.1071C5.0064 89.2107 5.50365 89.2522 6.10448 89.2522C8.27914 89.2522 9.60592 88.1955 9.60592 86.2687C9.60592 84.4247 8.30065 83.5338 6.31167 83.5338C5.52437 83.5338 4.92353 83.596 4.61275 83.6789V89.1071ZM22.3271 91.0754C22.3271 94.784 19.7572 96.4009 17.3332 96.4009C14.619 96.4009 12.5264 94.4119 12.5264 91.2411C12.5264 87.8847 14.7226 85.9165 17.4989 85.9165C20.3796 85.9157 22.3271 88.009 22.3271 91.0754ZM14.3712 91.179C14.3712 93.3751 15.635 95.0326 17.4168 95.0326C19.1572 95.0326 20.4617 93.3959 20.4617 91.1375C20.4617 89.4386 19.613 87.2839 17.4575 87.2839C15.3019 87.2839 14.3712 89.2729 14.3712 91.179ZM24.3775 94.3075C24.9161 94.6597 25.8692 95.0326 26.7808 95.0326C28.1068 95.0326 28.7284 94.3696 28.7284 93.5409C28.7284 92.6707 28.2112 92.1942 26.8637 91.6969C25.0612 91.0547 24.2117 90.0602 24.2117 88.8585C24.2117 87.2424 25.517 85.9165 27.6717 85.9165C28.6869 85.9165 29.5786 86.2065 30.138 86.538L29.6822 87.864C29.2886 87.6154 28.5634 87.2839 27.6311 87.2839C26.5537 87.2839 25.9529 87.9054 25.9529 88.6513C25.9529 89.4801 26.5545 89.853 27.8598 90.3502C29.6001 91.0132 30.491 91.8834 30.491 93.3751C30.491 95.1362 29.1236 96.3793 26.741 96.3793C25.6429 96.3793 24.6277 96.11 23.9232 95.6956L24.3775 94.3075ZM35.0276 83.2637V86.1436H37.6373V87.5317H35.0276V92.9393C35.0276 94.1824 35.379 94.8868 36.395 94.8868C36.8716 94.8868 37.2238 94.8246 37.4517 94.7625L37.5345 96.1299C37.1831 96.2749 36.6229 96.3785 35.9193 96.3785C35.0698 96.3785 34.3853 96.1092 33.9502 95.6119C33.4331 95.0733 33.2458 94.1824 33.2458 93.0014V87.5317H31.6919V86.1436H33.2458V83.7402L35.0276 83.2637ZM48.2046 86.1444C48.1624 86.8695 48.1217 87.6775 48.1217 88.8999V94.7219C48.1217 97.0216 47.6659 98.4305 46.6922 99.3015C45.7184 100.213 44.3095 100.503 43.0457 100.503C41.844 100.503 40.518 100.213 39.7092 99.6744L40.165 98.2862C40.828 98.7006 41.8639 99.0735 43.107 99.0735C44.9717 99.0735 46.3391 98.0998 46.3391 95.5721V94.4533H46.2977C45.7383 95.3856 44.6609 96.1315 43.107 96.1315C40.6208 96.1315 38.839 94.0182 38.839 91.2411C38.839 87.8433 41.0559 85.9165 43.3557 85.9165C45.0968 85.9165 46.0499 86.8281 46.485 87.6568H46.5264L46.6093 86.1444H48.2046ZM46.3192 90.1016C46.3192 89.7908 46.2985 89.5215 46.2156 89.2729C45.8841 88.2162 44.9932 87.346 43.6672 87.346C41.9261 87.346 40.6838 88.8171 40.6838 91.1375C40.6838 93.1058 41.6783 94.7426 43.6465 94.7426C44.7653 94.7426 45.7805 94.0381 46.1742 92.8779C46.2778 92.5671 46.32 92.2149 46.32 91.9041L46.3192 90.1016ZM51.0215 89.2729C51.0215 88.0919 51.0008 87.0767 50.9387 86.1444H52.5348L52.5961 88.1126H52.679C53.1348 86.7659 54.2329 85.9165 55.4553 85.9165C55.6625 85.9165 55.8067 85.9372 55.9725 85.9786V87.6983C55.7868 87.6568 55.5995 87.6361 55.3517 87.6361C54.0672 87.6361 53.1548 88.6099 52.9069 89.9773C52.8655 90.2259 52.824 90.516 52.824 90.8268V96.1722H51.0215V89.2729ZM58.6053 91.4898C58.6468 93.9553 60.2206 94.9705 62.0438 94.9705C63.3499 94.9705 64.1364 94.7426 64.8201 94.4525L65.1309 95.7578C64.4886 96.0478 63.3905 96.3793 61.7952 96.3793C58.7081 96.3793 56.8642 94.3489 56.8642 91.324C56.8642 88.2991 58.646 85.9157 61.5673 85.9157C64.8408 85.9157 65.711 88.7955 65.711 90.6395C65.711 91.0124 65.6696 91.3025 65.6488 91.489L58.6053 91.4898ZM63.9507 90.1845C63.9706 89.0242 63.4734 87.2217 61.423 87.2217C59.5791 87.2217 58.7711 88.9207 58.6252 90.1845H63.9507Z" fill="black"/>
  <path d="M67.7829 93.9758C68.5909 94.473 69.7719 94.8874 71.015 94.8874C72.8589 94.8874 73.9363 93.9136 73.9363 92.5048C73.9363 91.1995 73.1904 90.4536 71.305 89.7285C69.026 88.9205 67.6171 87.7395 67.6171 85.7712C67.6171 83.5958 69.4196 81.9797 72.1338 81.9797C73.5634 81.9797 74.5993 82.3112 75.2208 82.6634L74.7236 84.1345C74.2678 83.8858 73.3354 83.4715 72.0716 83.4715C70.1655 83.4715 69.4404 84.611 69.4404 85.564C69.4404 86.8693 70.289 87.5116 72.2166 88.2575C74.5786 89.1699 75.7802 90.3086 75.7802 92.3597C75.7802 94.5145 74.1849 96.3791 70.8907 96.3791C69.544 96.3791 68.0729 95.9855 67.3263 95.4882L67.7829 93.9758ZM89.7653 98.2231C87.8799 97.7258 86.0359 97.1664 84.4199 96.607C84.1298 96.5034 83.8398 96.3999 83.5704 96.3999C80.2554 96.2755 77.417 93.8308 77.417 89.3348C77.417 84.8596 80.1519 81.9797 83.9226 81.9797C87.7141 81.9797 90.1804 84.9218 90.1804 89.0448C90.1804 92.6291 88.523 94.9288 86.2025 95.7369V95.8197C87.5906 96.1719 89.1031 96.5034 90.284 96.7106L89.7653 98.2231ZM88.2735 89.1276C88.2735 86.3306 86.824 83.45 83.8605 83.45C80.8148 83.45 79.3231 86.2677 79.3438 89.2934C79.3231 92.2561 80.9599 94.9288 83.7776 94.9288C86.6583 94.9288 88.2735 92.3183 88.2735 89.1276ZM92.52 82.2076H94.3234V94.6595H100.29V96.1719H92.52V82.2076Z" fill="#336791"/>
</svg>
