<svg xmlns="http://www.w3.org/2000/svg" width="98" height="99" viewBox="0 0 98 99" fill="none">
  <g clip-path="url(#clip0_54_33)">
  <path d="M14.4747 80.1685V96.6021H18.6666V92.3222L22.481 96.1367H28.9127L23.8115 91.0354C23.8115 91.0354 27.482 90.9757 27.7591 85.6693C27.7591 80.8 24.0848 80.1685 19.8416 80.1685H14.4747ZM18.8664 84.6267H22.481V87.554H18.8664V84.6267ZM37.0078 80.2351C34.7137 80.222 31.5307 80.4349 31.5307 84.7599V96.1811H35.8328V93.387H40.0025V96.1145H44.3267V84.1391C44.3267 80.3828 40.1533 80.2351 37.9173 80.2351H37.0078ZM35.8986 84.3595H39.9351V88.8622H35.8986V84.3595ZM48.6372 80.245H53.0886V95.966H48.6372V80.245ZM57.7497 80.454V96.175H68.4628V92.0015H62.1329V80.3851L57.7497 80.454ZM82.6528 80.3139V84.557H75.4877V86.0873H78.549C78.549 86.0873 83.4887 86.0184 83.4887 91.0262C83.4887 96.0349 81.1922 96.3135 76.5319 96.3135H70.8978V92.4876H77.367C79.3145 92.4876 79.4224 91.853 79.4224 91.3003C79.4224 90.7484 78.4272 90.4919 76.4017 90.4919C74.3762 90.4919 70.62 89.496 70.62 85.6012C70.62 81.7056 72.5681 80.2442 76.463 80.2442C80.3578 80.245 82.6528 80.3139 82.6528 80.3139Z" fill="#A62C46"/>
  <path fill-rule="evenodd" clip-rule="evenodd" d="M76.9652 8.43087C69.5024 4.74808 61.8589 4.37375 54.0325 7.13948C46.8307 9.68552 41.0857 14.241 36.8157 20.4445C29.5894 30.9441 24.3412 42.4005 21.3979 54.8444C19.8929 61.2148 18.9169 67.325 19.1795 73.9029C19.2009 74.4372 19.2798 75.1683 19.3326 75.1683H56.2402C56.1353 75.1683 56.0649 74.9478 55.9738 74.7143C54.0325 69.7577 52.4946 64.8463 51.4321 59.6302C49.9049 52.1406 49.1057 44.6717 50.6827 37.1124C52.8904 26.5264 58.9248 18.9687 69.0967 15.0103C74.8585 12.7659 80.3265 13.4456 85.1238 17.6551C85.1682 17.6941 85.2578 17.6918 85.3749 17.711L86.9442 15.3479C83.9235 12.4712 80.6043 10.2267 76.9652 8.43087ZM19.1787 57.6798L11.9448 57.1332L11.1257 64.1344L17.9317 64.952L19.1787 57.6798ZM25.3042 36.2314C23.0927 35.3671 21.0327 34.5603 18.9024 33.7259C18.192 35.7453 17.5291 37.6246 16.8325 39.6011C19.0669 40.3176 21.1713 40.992 23.3575 41.6916L25.3042 36.2314ZM55.5206 69.0389C57.7061 69.2012 59.8962 69.3145 62.3082 69.4546C61.4317 67.6335 60.6548 65.9869 59.8388 64.3587C59.75 64.1819 59.4483 64.0112 59.244 64.0081C57.3899 63.9813 55.5336 63.992 53.5632 63.992C54.0064 65.5996 54.393 67.0808 54.8447 68.5429C54.912 68.7634 55.2756 69.0206 55.5206 69.0389ZM36.1543 18.4367L31.2911 15.2162C29.9875 16.673 28.7306 18.0776 27.4024 19.5604L32.4026 22.9209L36.1543 18.4367ZM51.6434 51.0666C51.6365 51.2634 51.8133 51.5757 51.9848 51.6538C53.737 52.4407 55.5068 53.1909 57.4343 54.0215C57.354 52.4981 57.2996 51.2243 57.2093 49.9536C57.1924 49.7255 57.0845 49.3956 56.9153 49.3014C55.307 48.4104 53.6765 47.5607 51.8921 46.6145C51.7942 48.2443 51.6954 49.6535 51.6434 51.0666ZM50.2027 6.94045L46.8728 3.16197L42.2882 5.54496L45.6227 9.60744L50.2027 6.94045ZM52.291 37.0068C52.1922 37.2365 52.3239 37.7202 52.5191 37.8971C53.8488 39.0966 55.2243 40.2441 56.7538 41.5538C57.1044 40.0864 57.4343 38.7789 57.7145 37.4623C57.7643 37.2273 57.6954 36.8399 57.5323 36.7098C56.342 35.7499 55.1141 34.8374 53.8411 33.8652C53.2815 34.9759 52.7395 35.9711 52.291 37.0068ZM59.9031 4.95399C61.6025 5.00145 63.3042 4.98002 65.0992 4.98002C64.9201 3.73073 64.8351 2.78305 64.6216 1.86675C64.558 1.595 64.1462 1.23063 63.8699 1.20843C62.1666 1.06987 60.4557 1.01705 58.5803 0.92749C58.8306 2.18826 59.0212 3.29976 59.2907 4.39212C59.3488 4.62483 59.6872 4.9494 59.9031 4.95399ZM61.973 26.766C62.0595 26.6037 62.0817 26.3082 61.9906 26.1659C61.1546 24.8599 60.2881 23.5731 59.3894 22.2205L56.4782 24.8928L60.504 29.3534C61.0436 28.4118 61.5274 27.5989 61.973 26.766ZM65.1115 17.8847C65.73 19.0322 66.2904 20.0725 66.8499 21.1144C69.5697 19.6247 69.8308 19.0835 68.867 16.9363L65.1115 17.8847ZM78.1264 7.9356C79.2586 8.63373 80.4535 9.22775 81.6684 9.88302L82.4813 8.61689L77.9488 5.29923C77.8861 5.97363 77.7911 6.44671 77.8156 6.91137C77.8348 7.26732 77.8953 7.79245 78.1264 7.9356ZM81.1325 16.8896C78.8361 16.6209 78.0706 16.3553 76.5396 16.0797V18.1573C78.0706 18.2897 78.8361 18.4168 81.1325 18.55V16.8896Z" fill="#A62C46"/>
  </g>
  <defs>
  <clipPath id="clip0_54_33">
  <rect width="97.9834" height="97.9834" fill="white" transform="translate(-0.00991821 0.149658)"/>
  </clipPath>
  </defs>
</svg>
